Commissioner-FlairThin.ufo
<glyph name="numbersign" format="2">
  <advance width="1342"/>
  <unicode hex="0023"/>
  <outline>
    <contour>
      <point x="40" y="338" type="line"/>
      <point x="156" y="342"/>
      <point x="266" y="342"/>
      <point x="360" y="342" type="curve"/>
      <point x="860" y="342" type="line"/>
      <point x="954" y="342"/>
      <point x="1064" y="342"/>
      <point x="1180" y="338" type="curve"/>
      <point x="1180" y="402" type="line"/>
      <point x="1064" y="398"/>
      <point x="954" y="398"/>
      <point x="860" y="398" type="curve"/>
      <point x="360" y="398" type="line"/>
      <point x="266" y="398"/>
      <point x="156" y="398"/>
      <point x="40" y="402" type="curve"/>
    </contour>
    <contour>
      <point x="256" y="0" type="curve"/>
      <point x="326" y="0" type="line"/>
      <point x="352" y="136"/>
      <point x="376" y="250"/>
      <point x="412" y="418" type="curve"/>
      <point x="510" y="868" type="line"/>
      <point x="548" y="1046"/>
      <point x="574" y="1164"/>
      <point x="608" y="1306" type="curve"/>
      <point x="538" y="1306" type="line"/>
      <point x="510" y="1164"/>
      <point x="486" y="1046"/>
      <point x="448" y="872" type="curve"/>
      <point x="350" y="418" type="line"/>
      <point x="314" y="250"/>
      <point x="286" y="136"/>
    </contour>
    <contour>
      <point x="162" y="898" type="line"/>
      <point x="278" y="902"/>
      <point x="388" y="902"/>
      <point x="482" y="902" type="curve"/>
      <point x="982" y="902" type="line"/>
      <point x="1076" y="902"/>
      <point x="1186" y="902"/>
      <point x="1302" y="898" type="curve"/>
      <point x="1302" y="962" type="line"/>
      <point x="1186" y="958"/>
      <point x="1076" y="958"/>
      <point x="982" y="958" type="curve"/>
      <point x="482" y="958" type="line"/>
      <point x="388" y="958"/>
      <point x="278" y="958"/>
      <point x="162" y="962" type="curve"/>
    </contour>
    <contour>
      <point x="716" y="0" type="curve"/>
      <point x="786" y="0" type="line"/>
      <point x="812" y="136"/>
      <point x="836" y="250"/>
      <point x="872" y="418" type="curve"/>
      <point x="970" y="868" type="line"/>
      <point x="1008" y="1046"/>
      <point x="1034" y="1164"/>
      <point x="1068" y="1306" type="curve"/>
      <point x="998" y="1306" type="line"/>
      <point x="970" y="1164"/>
      <point x="946" y="1046"/>
      <point x="908" y="872" type="curve"/>
      <point x="810" y="418" type="line"/>
      <point x="774" y="250"/>
      <point x="746" y="136"/>
    </contour>
  </outline>
</glyph>
<glyph name="ampersand" format="2">
  <advance width="1420"/>
  <unicode hex="0026"/>
  <outline>
    <contour>
      <point x="1280" y="0" type="curve"/>
      <point x="1380" y="0" type="line"/>
      <point x="1266" y="104"/>
      <point x="1158" y="210"/>
      <point x="1048" y="316" type="curve"/>
      <point x="568" y="782" type="line" smooth="yes"/>
      <point x="430" y="916"/>
      <point x="366" y="1006"/>
      <point x="366" y="1130" type="curve" smooth="yes"/>
      <point x="366" y="1274"/>
      <point x="454" y="1384"/>
      <point x="608" y="1388" type="curve"/>
      <point x="742" y="1384"/>
      <point x="836" y="1298"/>
      <point x="836" y="1150" type="curve" smooth="yes"/>
      <point x="836" y="984"/>
      <point x="688" y="902"/>
      <point x="526" y="814" type="curve"/>
      <point x="564" y="768" type="line"/>
      <point x="720" y="852"/>
      <point x="898" y="952"/>
      <point x="898" y="1150" type="curve" smooth="yes"/>
      <point x="898" y="1336"/>
      <point x="766" y="1450"/>
      <point x="608" y="1450" type="curve" smooth="yes"/>
      <point x="440" y="1450"/>
      <point x="304" y="1322"/>
      <point x="304" y="1130" type="curve" smooth="yes"/>
      <point x="304" y="978"/>
      <point x="388" y="870"/>
      <point x="524" y="738" type="curve" smooth="yes"/>
      <point x="1004" y="272" type="line"/>
      <point x="1098" y="182"/>
      <point x="1194" y="88"/>
    </contour>
    <contour>
      <point x="552" y="-18" type="curve" smooth="yes"/>
      <point x="732" y="-18"/>
      <point x="866" y="78"/>
      <point x="1016" y="250" type="curve"/>
      <point x="1040" y="250" type="line"/>
      <point x="1034" y="274" type="line"/>
      <point x="982" y="308" type="line"/>
      <point x="828" y="118"/>
      <point x="706" y="44"/>
      <point x="552" y="44" type="curve"/>
      <point x="314" y="48"/>
      <point x="182" y="168"/>
      <point x="182" y="362" type="curve" smooth="yes"/>
      <point x="182" y="562"/>
      <point x="334" y="680"/>
      <point x="526" y="768" type="curve"/>
      <point x="496" y="820" type="line"/>
      <point x="322" y="740"/>
      <point x="120" y="606"/>
      <point x="120" y="362" type="curve" smooth="yes"/>
      <point x="120" y="156"/>
      <point x="264" y="-18"/>
    </contour>
    <contour>
      <point x="1056" y="296" type="line"/>
      <point x="1138" y="424"/>
      <point x="1216" y="546"/>
      <point x="1300" y="670" type="curve"/>
      <point x="1236" y="706" type="line"/>
      <point x="1164" y="578"/>
      <point x="1090" y="462"/>
      <point x="1008" y="332" type="curve"/>
    </contour>
  </outline>
</glyph>
<glyph name="parenleft" format="2">
  <advance width="728"/>
  <unicode hex="0028"/>
  <outline>
    <contour>
      <point x="562" y="-224" type="curve"/>
      <point x="630" y="-194" type="line"/>
      <point x="394" y="26"/>
      <point x="204" y="282"/>
      <point x="204" y="648" type="curve" smooth="yes"/>
      <point x="204" y="1016"/>
      <point x="394" y="1270"/>
      <point x="630" y="1490" type="curve"/>
      <point x="562" y="1520" type="line"/>
      <point x="332" y="1286"/>
      <point x="140" y="1026"/>
      <point x="140" y="648" type="curve" smooth="yes"/>
      <point x="140" y="272"/>
      <point x="332" y="10"/>
    </contour>
  </outline>
</glyph>
<glyph name="comma" format="2">
  <advance width="428"/>
  <unicode hex="002C"/>
  <outline>
    <contour>
      <point x="90" y="-314" type="curve"/>
      <point x="146" y="-312" type="line"/>
      <point x="216" y="-214"/>
      <point x="302" y="-36"/>
      <point x="302" y="88" type="curve" smooth="yes"/>
      <point x="302" y="136"/>
      <point x="282" y="170"/>
      <point x="238" y="172" type="curve"/>
      <point x="186" y="170" type="line"/>
      <point x="192" y="122"/>
      <point x="194" y="74"/>
      <point x="194" y="26" type="curve"/>
      <point x="194" y="-88"/>
      <point x="168" y="-196"/>
    </contour>
  </outline>
</glyph>
<glyph name="period" format="2">
  <advance width="426"/>
  <unicode hex="002E"/>
  <outline>
    <contour>
      <point x="214" y="-18" type="curve" smooth="yes"/>
      <point x="270" y="-18"/>
      <point x="304" y="10"/>
      <point x="304" y="78" type="curve" smooth="yes"/>
      <point x="304" y="136"/>
      <point x="270" y="162"/>
      <point x="214" y="162" type="curve" smooth="yes"/>
      <point x="160" y="162"/>
      <point x="124" y="136"/>
      <point x="124" y="78" type="curve" smooth="yes"/>
      <point x="124" y="10"/>
      <point x="160" y="-18"/>
    </contour>
  </outline>
</glyph>
<glyph name="slash" format="2">
  <advance width="876"/>
  <unicode hex="002F"/>
  <outline>
    <contour>
      <point x="76" y="0" type="curve"/>
      <point x="150" y="0" type="line"/>
      <point x="214" y="148"/>
      <point x="270" y="274"/>
      <point x="354" y="456" type="curve"/>
      <point x="578" y="948" type="line"/>
      <point x="666" y="1142"/>
      <point x="726" y="1272"/>
      <point x="800" y="1426" type="curve"/>
      <point x="726" y="1426" type="line"/>
      <point x="658" y="1272"/>
      <point x="600" y="1142"/>
      <point x="514" y="952" type="curve"/>
      <point x="288" y="456" type="line"/>
      <point x="204" y="274"/>
      <point x="144" y="148"/>
    </contour>
  </outline>
</glyph>
<glyph name="one" format="2">
  <advance width="816"/>
  <unicode hex="0031"/>
  <outline>
    <contour>
      <point x="100" y="1046" type="line"/>
      <point x="244" y="1134"/>
      <point x="388" y="1220"/>
      <point x="534" y="1304" type="curve"/>
      <point x="534" y="1372" type="line"/>
      <point x="382" y="1284"/>
      <point x="232" y="1198"/>
      <point x="78" y="1116" type="curve"/>
    </contour>
    <contour>
      <point x="502" y="0" type="curve"/>
      <point x="572" y="0" type="line"/>
      <point x="566" y="150"/>
      <point x="566" y="280"/>
      <point x="566" y="442" type="curve"/>
      <point x="566" y="894" type="line"/>
      <point x="566" y="1064"/>
      <point x="568" y="1224"/>
      <point x="572" y="1368" type="curve"/>
      <point x="534" y="1372" type="line"/>
      <point x="504" y="1336" type="line"/>
      <point x="504" y="1188"/>
      <point x="506" y="1040"/>
      <point x="506" y="894" type="curve"/>
      <point x="506" y="442" type="line"/>
      <point x="506" y="280"/>
      <point x="506" y="150"/>
    </contour>
  </outline>
</glyph>
<glyph name="four" format="2">
  <advance width="1178"/>
  <unicode hex="0034"/>
  <outline>
    <contour>
      <point x="760" y="0" type="curve"/>
      <point x="830" y="0" type="line"/>
      <point x="824" y="122"/>
      <point x="824" y="216"/>
      <point x="824" y="364" type="curve"/>
      <point x="824" y="886" type="line"/>
      <point x="824" y="1044"/>
      <point x="824" y="1202"/>
      <point x="830" y="1368" type="curve"/>
      <point x="756" y="1368" type="line"/>
      <point x="696" y="1276"/>
      <point x="628" y="1178"/>
      <point x="562" y="1084" type="curve"/>
      <point x="378" y="824" type="line"/>
      <point x="284" y="692"/>
      <point x="158" y="512"/>
      <point x="70" y="394" type="curve"/>
      <point x="70" y="338" type="line"/>
      <point x="808" y="338" type="line"/>
      <point x="902" y="338"/>
      <point x="1040" y="338"/>
      <point x="1126" y="334" type="curve"/>
      <point x="1126" y="402" type="line"/>
      <point x="1040" y="398"/>
      <point x="902" y="398"/>
      <point x="808" y="398" type="curve"/>
      <point x="782" y="398" type="line"/>
      <point x="126" y="398" type="line"/>
      <point x="136" y="370" type="line"/>
      <point x="200" y="466"/>
      <point x="264" y="560"/>
      <point x="332" y="656" type="curve"/>
      <point x="586" y="1016" type="line"/>
      <point x="664" y="1126"/>
      <point x="742" y="1236"/>
      <point x="820" y="1342" type="curve"/>
      <point x="762" y="1324" type="line"/>
      <point x="764" y="1178"/>
      <point x="764" y="1032"/>
      <point x="764" y="886" type="curve"/>
      <point x="764" y="386" type="line"/>
      <point x="764" y="364" type="line"/>
      <point x="764" y="216"/>
      <point x="764" y="122"/>
    </contour>
  </outline>
</glyph>
<glyph name="five" format="2">
  <advance width="1136"/>
  <unicode hex="0035"/>
  <outline>
    <contour>
      <point x="544" y="-18" type="curve" smooth="yes"/>
      <point x="844" y="-18"/>
      <point x="1016" y="162"/>
      <point x="1016" y="434" type="curve" smooth="yes"/>
      <point x="1016" y="730"/>
      <point x="812" y="866"/>
      <point x="570" y="866" type="curve" smooth="yes"/>
      <point x="450" y="866"/>
      <point x="340" y="826"/>
      <point x="264" y="782" type="curve"/>
      <point x="252" y="782" type="line"/>
      <point x="252" y="894" type="line"/>
      <point x="252" y="1040"/>
      <point x="254" y="1188"/>
      <point x="254" y="1336" type="curve"/>
      <point x="226" y="1308" type="line"/>
      <point x="434" y="1308" type="line"/>
      <point x="596" y="1308"/>
      <point x="762" y="1308"/>
      <point x="926" y="1302" type="curve"/>
      <point x="926" y="1368" type="line"/>
      <point x="186" y="1368" type="line"/>
      <point x="190" y="1224"/>
      <point x="192" y="1064"/>
      <point x="192" y="894" type="curve"/>
      <point x="192" y="692" type="line"/>
      <point x="224" y="688" type="line"/>
      <point x="348" y="776"/>
      <point x="476" y="802"/>
      <point x="570" y="802" type="curve"/>
      <point x="778" y="800"/>
      <point x="954" y="706"/>
      <point x="954" y="434" type="curve" smooth="yes"/>
      <point x="954" y="190"/>
      <point x="816" y="48"/>
      <point x="544" y="46" type="curve"/>
      <point x="414" y="46"/>
      <point x="266" y="94"/>
      <point x="112" y="170" type="curve"/>
      <point x="100" y="98" type="line"/>
      <point x="206" y="54"/>
      <point x="364" y="-18"/>
    </contour>
  </outline>
</glyph>
<glyph name="greater" format="2">
  <advance width="1120"/>
  <unicode hex="003E"/>
  <outline>
    <contour>
      <point x="140" y="172" type="line"/>
      <point x="254" y="226"/>
      <point x="366" y="278"/>
      <point x="462" y="322" type="curve"/>
      <point x="662" y="412" type="line"/>
      <point x="754" y="454"/>
      <point x="866" y="504"/>
      <point x="980" y="552" type="curve"/>
      <point x="980" y="624" type="line"/>
      <point x="866" y="672"/>
      <point x="754" y="722"/>
      <point x="662" y="764" type="curve"/>
      <point x="462" y="854" type="line"/>
      <point x="366" y="898"/>
      <point x="254" y="950"/>
      <point x="140" y="1004" type="curve"/>
      <point x="140" y="926" type="line"/>
      <point x="300" y="862"/>
      <point x="470" y="786"/>
      <point x="634" y="712" type="curve"/>
      <point x="896" y="594" type="line"/>
      <point x="896" y="582" type="line"/>
      <point x="634" y="464" type="line"/>
      <point x="470" y="390"/>
      <point x="300" y="314"/>
      <point x="140" y="250" type="curve"/>
    </contour>
  </outline>
</glyph>
<glyph name="C" format="2">
  <advance width="1372"/>
  <unicode hex="0043"/>
  <anchor x="802" y="0" name="bottom"/>
  <anchor x="782" y="1426" name="top"/>
  <outline>
    <contour>
      <point x="834" y="-18" type="curve" smooth="yes"/>
      <point x="972" y="-18"/>
      <point x="1132" y="22"/>
      <point x="1250" y="84" type="curve"/>
      <point x="1238" y="162" type="line"/>
      <point x="1116" y="90"/>
      <point x="968" y="48"/>
      <point x="830" y="48" type="curve"/>
      <point x="408" y="54"/>
      <point x="186" y="346"/>
      <point x="186" y="716" type="curve" smooth="yes"/>
      <point x="186" y="1120"/>
      <point x="442" y="1378"/>
      <point x="804" y="1384" type="curve"/>
      <point x="884" y="1384"/>
      <point x="1054" y="1348"/>
      <point x="1252" y="1258" type="curve"/>
      <point x="1262" y="1334" type="line"/>
      <point x="1146" y="1382"/>
      <point x="956" y="1450"/>
      <point x="806" y="1450" type="curve" smooth="yes"/>
      <point x="414" y="1450"/>
      <point x="120" y="1152"/>
      <point x="120" y="718" type="curve" smooth="yes"/>
      <point x="120" y="306"/>
      <point x="390" y="-18"/>
    </contour>
  </outline>
</glyph>
<glyph name="D" format="2">
  <advance width="1478"/>
  <unicode hex="0044"/>
  <anchor x="700" y="0" name="bottom"/>
  <anchor x="740" y="714" name="center"/>
  <anchor x="700" y="1426" name="top"/>
  <outline>
    <contour>
      <point x="216" y="0" type="curve"/>
      <point x="370" y="0"/>
      <point x="472" y="-2"/>
      <point x="630" y="-2" type="curve"/>
      <point x="1158" y="-2"/>
      <point x="1358" y="318"/>
      <point x="1358" y="720" type="curve" smooth="yes"/>
      <point x="1358" y="1160"/>
      <point x="1112" y="1428"/>
      <point x="668" y="1428" type="curve"/>
      <point x="522" y="1428"/>
      <point x="406" y="1426"/>
      <point x="216" y="1426" type="curve"/>
      <point x="220" y="1264"/>
      <point x="220" y="1124"/>
      <point x="220" y="950" type="curve"/>
      <point x="220" y="476" type="line"/>
      <point x="220" y="302"/>
      <point x="220" y="162"/>
    </contour>
    <contour>
      <point x="288" y="62" type="line"/>
      <point x="284" y="198"/>
      <point x="284" y="324"/>
      <point x="284" y="476" type="curve"/>
      <point x="284" y="950" type="line"/>
      <point x="284" y="1102"/>
      <point x="284" y="1228"/>
      <point x="288" y="1364" type="curve"/>
      <point x="658" y="1364" type="line"/>
      <point x="1106" y="1358"/>
      <point x="1292" y="1112"/>
      <point x="1292" y="722" type="curve" smooth="yes"/>
      <point x="1292" y="346"/>
      <point x="1130" y="68"/>
      <point x="632" y="62" type="curve"/>
    </contour>
  </outline>
</glyph>
<glyph name="J" format="2">
  <advance width="542"/>
  <unicode hex="004A"/>
  <anchor x="286" y="0" name="bottom"/>
  <anchor x="286" y="1426" name="top"/>
  <outline>
    <contour>
      <point x="52" y="-320" type="curve"/>
      <point x="150" y="-320" type="line"/>
      <point x="222" y="-230"/>
      <point x="322" y="-82"/>
      <point x="322" y="112" type="curve" smooth="yes"/>
      <point x="322" y="242"/>
      <point x="320" y="384"/>
      <point x="320" y="538" type="curve"/>
      <point x="320" y="950" type="line"/>
      <point x="320" y="1124"/>
      <point x="320" y="1264"/>
      <point x="326" y="1426" type="curve"/>
      <point x="252" y="1426" type="line"/>
      <point x="256" y="1264"/>
      <point x="256" y="1124"/>
      <point x="256" y="950" type="curve"/>
      <point x="256" y="476" type="line"/>
      <point x="254" y="118" type="line"/>
      <point x="254" y="-74"/>
      <point x="166" y="-198"/>
    </contour>
  </outline>
</glyph>
<glyph name="M" format="2">
  <advance width="1900"/>
  <unicode hex="004D"/>
  <anchor x="950" y="0" name="bottom"/>
  <anchor x="950" y="1426" name="top"/>
  <outline>
    <contour>
      <point x="152" y="0" type="curve"/>
      <point x="230" y="0" type="line"/>
      <point x="260" y="294"/>
      <point x="292" y="562"/>
      <point x="320" y="792" type="curve"/>
      <point x="380" y="1288" type="line"/>
      <point x="386" y="1288" type="line"/>
      <point x="612" y="748" type="line"/>
      <point x="716" y="498"/>
      <point x="834" y="208"/>
      <point x="920" y="0" type="curve"/>
      <point x="982" y="0" type="line"/>
      <point x="1072" y="224"/>
      <point x="1184" y="494"/>
      <point x="1292" y="752" type="curve"/>
      <point x="1518" y="1288" type="line"/>
      <point x="1524" y="1288" type="line"/>
      <point x="1584" y="792" type="line"/>
      <point x="1612" y="562"/>
      <point x="1642" y="294"/>
      <point x="1672" y="0" type="curve"/>
      <point x="1748" y="0" type="line"/>
      <point x="1724" y="162"/>
      <point x="1706" y="304"/>
      <point x="1686" y="476" type="curve"/>
      <point x="1630" y="946" type="line"/>
      <point x="1608" y="1122"/>
      <point x="1592" y="1262"/>
      <point x="1576" y="1426" type="curve"/>
      <point x="1498" y="1426" type="line"/>
      <point x="1408" y="1192"/>
      <point x="1318" y="974"/>
      <point x="1226" y="756" type="curve"/>
      <point x="956" y="110" type="line"/>
      <point x="948" y="110" type="line"/>
      <point x="678" y="756" type="line"/>
      <point x="586" y="974"/>
      <point x="496" y="1192"/>
      <point x="406" y="1426" type="curve"/>
      <point x="326" y="1426" type="line"/>
      <point x="312" y="1260"/>
      <point x="296" y="1118"/>
      <point x="274" y="946" type="curve"/>
      <point x="216" y="476" type="line"/>
      <point x="194" y="302"/>
      <point x="176" y="162"/>
    </contour>
  </outline>
</glyph>
<glyph name="O" format="2">
  <advance width="1638"/>
  <unicode hex="004F"/>
  <anchor x="818" y="0" name="bottom"/>
  <anchor x="818" y="714" name="center"/>
  <anchor x="988" y="0" name="ogonek"/>
  <anchor x="818" y="1426" name="top"/>
  <anchor x="54" y="1426" name="topleft"/>
  <anchor x="1444" y="1426" name="topright"/>
  <outline>
    <contour>
      <point x="826" y="-18" type="curve" smooth="yes"/>
      <point x="1250" y="-18"/>
      <point x="1518" y="296"/>
      <point x="1518" y="716" type="curve" smooth="yes"/>
      <point x="1518" y="1124"/>
      <point x="1262" y="1450"/>
      <point x="822" y="1450" type="curve" smooth="yes"/>
      <point x="390" y="1450"/>
      <point x="120" y="1130"/>
      <point x="120" y="716" type="curve" smooth="yes"/>
      <point x="120" y="316"/>
      <point x="366" y="-18"/>
    </contour>
    <contour>
      <point x="822" y="48" type="curve"/>
      <point x="380" y="56"/>
      <point x="186" y="360"/>
      <point x="186" y="716" type="curve" smooth="yes"/>
      <point x="186" y="1070"/>
      <point x="388" y="1376"/>
      <point x="822" y="1384" type="curve"/>
      <point x="1242" y="1376"/>
      <point x="1452" y="1094"/>
      <point x="1452" y="716" type="curve" smooth="yes"/>
      <point x="1452" y="368"/>
      <point x="1264" y="56"/>
    </contour>
  </outline>
</glyph>
<glyph name="U" format="2">
  <advance width="1464"/>
  <unicode hex="0055"/>
  <anchor x="734" y="0" name="bottom"/>
  <anchor x="898" y="0" name="ogonek"/>
  <anchor x="734" y="1426" name="top"/>
  <anchor x="1378" y="1426" name="topright"/>
  <outline>
    <contour>
      <point x="732" y="-18" type="curve" smooth="yes"/>
      <point x="1104" y="-18"/>
      <point x="1268" y="200"/>
      <point x="1268" y="516" type="curve" smooth="yes"/>
      <point x="1268" y="604"/>
      <point x="1266" y="776"/>
      <point x="1266" y="950" type="curve"/>
      <point x="1266" y="1124"/>
      <point x="1266" y="1264"/>
      <point x="1272" y="1426" type="curve"/>
      <point x="1198" y="1426" type="line"/>
      <point x="1202" y="1264"/>
      <point x="1202" y="1124"/>
      <point x="1202" y="950" type="curve"/>
      <point x="1202" y="536" type="line" smooth="yes"/>
      <point x="1202" y="226"/>
      <point x="1082" y="50"/>
      <point x="732" y="48" type="curve"/>
      <point x="382" y="50"/>
      <point x="260" y="228"/>
      <point x="260" y="534" type="curve" smooth="yes"/>
      <point x="260" y="950" type="line"/>
      <point x="260" y="1124"/>
      <point x="260" y="1264"/>
      <point x="266" y="1426" type="curve"/>
      <point x="192" y="1426" type="line"/>
      <point x="196" y="1264"/>
      <point x="196" y="1124"/>
      <point x="196" y="950" type="curve"/>
      <point x="196" y="776"/>
      <point x="194" y="604"/>
      <point x="194" y="516" type="curve" smooth="yes"/>
      <point x="194" y="200"/>
      <point x="362" y="-18"/>
    </contour>
  </outline>
</glyph>
<glyph name="V" format="2">
  <advance width="1336"/>
  <unicode hex="0056"/>
  <anchor x="670" y="0" name="bottom"/>
  <anchor x="670" y="1426" name="top"/>
  <outline>
    <contour>
      <point x="620" y="0" type="curve"/>
      <point x="724" y="0" type="line"/>
      <point x="776" y="146"/>
      <point x="840" y="312"/>
      <point x="894" y="450" type="curve"/>
      <point x="1068" y="900" type="line"/>
      <point x="1128" y="1054"/>
      <point x="1208" y="1256"/>
      <point x="1278" y="1426" type="curve"/>
      <point x="1196" y="1426" type="line"/>
      <point x="1110" y="1198"/>
      <point x="1014" y="942"/>
      <point x="928" y="714" type="curve"/>
      <point x="678" y="72" type="line"/>
      <point x="666" y="72" type="line"/>
      <point x="414" y="712" type="line"/>
      <point x="326" y="934"/>
      <point x="222" y="1202"/>
      <point x="140" y="1426" type="curve"/>
      <point x="56" y="1426" type="line"/>
      <point x="130" y="1254"/>
      <point x="210" y="1052"/>
      <point x="270" y="900" type="curve"/>
      <point x="448" y="452" type="line"/>
      <point x="502" y="316"/>
      <point x="568" y="142"/>
    </contour>
  </outline>
</glyph>
<glyph name="X" format="2">
  <advance width="1318"/>
  <unicode hex="0058"/>
  <outline>
    <contour>
      <point x="84" y="0" type="curve"/>
      <point x="176" y="0" type="line"/>
      <point x="270" y="140"/>
      <point x="350" y="258"/>
      <point x="434" y="380" type="curve"/>
      <point x="634" y="670" type="line"/>
      <point x="646" y="670" type="line"/>
      <point x="860" y="382" type="line"/>
      <point x="946" y="266"/>
      <point x="1038" y="140"/>
      <point x="1138" y="0" type="curve"/>
      <point x="1234" y="0" type="line"/>
      <point x="1114" y="150"/>
      <point x="1012" y="284"/>
      <point x="898" y="438" type="curve"/>
      <point x="668" y="748" type="line"/>
      <point x="668" y="714" type="line"/>
      <point x="890" y="1030" type="line"/>
      <point x="970" y="1144"/>
      <point x="1068" y="1280"/>
      <point x="1176" y="1426" type="curve"/>
      <point x="1082" y="1426" type="line"/>
      <point x="988" y="1290"/>
      <point x="894" y="1150"/>
      <point x="808" y="1026" type="curve"/>
      <point x="642" y="788" type="line"/>
      <point x="630" y="788" type="line"/>
      <point x="460" y="1024" type="line"/>
      <point x="372" y="1146"/>
      <point x="276" y="1284"/>
      <point x="180" y="1426" type="curve"/>
      <point x="86" y="1426" type="line"/>
      <point x="206" y="1266"/>
      <point x="302" y="1134"/>
      <point x="398" y="1002" type="curve"/>
      <point x="608" y="710" type="line"/>
      <point x="608" y="744" type="line"/>
      <point x="368" y="398" type="line"/>
      <point x="268" y="254"/>
      <point x="176" y="126"/>
    </contour>
  </outline>
</glyph>
<glyph name="b" format="2">
  <advance width="1180"/>
  <unicode hex="0062"/>
  <outline>
    <contour>
      <point x="614" y="-18" type="curve" smooth="yes"/>
      <point x="906" y="-18"/>
      <point x="1056" y="220"/>
      <point x="1056" y="498" type="curve" smooth="yes"/>
      <point x="1056" y="792"/>
      <point x="888" y="1008"/>
      <point x="610" y="1008" type="curve" smooth="yes"/>
      <point x="468" y="1008"/>
      <point x="356" y="934"/>
      <point x="280" y="866" type="curve"/>
      <point x="268" y="866" type="line"/>
      <point x="268" y="988" type="line"/>
      <point x="268" y="1158"/>
      <point x="268" y="1316"/>
      <point x="274" y="1480" type="curve"/>
      <point x="196" y="1458" type="line"/>
      <point x="204" y="1314"/>
      <point x="208" y="1158"/>
      <point x="208" y="988" type="curve"/>
      <point x="208" y="442" type="line"/>
      <point x="208" y="280"/>
      <point x="208" y="150"/>
      <point x="204" y="0" type="curve"/>
      <point x="260" y="0" type="line"/>
      <point x="266" y="142" type="line"/>
      <point x="278" y="142" type="line"/>
      <point x="378" y="38"/>
      <point x="498" y="-18"/>
    </contour>
    <contour>
      <point x="614" y="46" type="curve"/>
      <point x="484" y="46"/>
      <point x="364" y="116"/>
      <point x="268" y="248" type="curve"/>
      <point x="268" y="768" type="line"/>
      <point x="366" y="886"/>
      <point x="498" y="942"/>
      <point x="610" y="944" type="curve"/>
      <point x="872" y="938"/>
      <point x="994" y="744"/>
      <point x="994" y="498" type="curve" smooth="yes"/>
      <point x="994" y="262"/>
      <point x="882" y="52"/>
    </contour>
  </outline>
</glyph>
<glyph name="c" format="2">
  <advance width="1004"/>
  <unicode hex="0063"/>
  <anchor x="580" y="0" name="bottom"/>
  <anchor x="562" y="988" name="top"/>
  <outline>
    <contour>
      <point x="608" y="-18" type="curve" smooth="yes"/>
      <point x="724" y="-18"/>
      <point x="828" y="26"/>
      <point x="898" y="54" type="curve"/>
      <point x="884" y="126" type="line"/>
      <point x="786" y="74"/>
      <point x="692" y="46"/>
      <point x="608" y="46" type="curve"/>
      <point x="324" y="52"/>
      <point x="186" y="244"/>
      <point x="186" y="496" type="curve" smooth="yes"/>
      <point x="186" y="770"/>
      <point x="346" y="938"/>
      <point x="592" y="944" type="curve"/>
      <point x="644" y="944"/>
      <point x="754" y="920"/>
      <point x="882" y="862" type="curve"/>
      <point x="888" y="934" type="line"/>
      <point x="812" y="964"/>
      <point x="688" y="1008"/>
      <point x="590" y="1008" type="curve" smooth="yes"/>
      <point x="300" y="1008"/>
      <point x="124" y="786"/>
      <point x="124" y="496" type="curve" smooth="yes"/>
      <point x="124" y="208"/>
      <point x="298" y="-18"/>
    </contour>
  </outline>
</glyph>
<glyph name="d" format="2">
  <advance width="1144"/>
  <unicode hex="0064"/>
  <anchor x="612" y="0" name="bottom"/>
  <anchor x="578" y="494" name="center"/>
  <anchor x="612" y="1446" name="top"/>
  <anchor x="1090" y="988" name="topright"/>
  <outline>
    <contour>
      <point x="566" y="-18" type="curve" smooth="yes"/>
      <point x="682" y="-18"/>
      <point x="802" y="38"/>
      <point x="902" y="142" type="curve"/>
      <point x="914" y="142" type="line"/>
      <point x="918" y="0" type="line"/>
      <point x="978" y="0" type="line"/>
      <point x="972" y="150"/>
      <point x="972" y="280"/>
      <point x="972" y="442" type="curve"/>
      <point x="972" y="988" type="line"/>
      <point x="972" y="1158"/>
      <point x="972" y="1316"/>
      <point x="978" y="1480" type="curve"/>
      <point x="900" y="1458" type="line"/>
      <point x="908" y="1314"/>
      <point x="912" y="1158"/>
      <point x="912" y="988" type="curve"/>
      <point x="912" y="866" type="line"/>
      <point x="900" y="866" type="line"/>
      <point x="824" y="934"/>
      <point x="712" y="1008"/>
      <point x="570" y="1008" type="curve" smooth="yes"/>
      <point x="292" y="1008"/>
      <point x="124" y="792"/>
      <point x="124" y="498" type="curve" smooth="yes"/>
      <point x="124" y="220"/>
      <point x="274" y="-18"/>
    </contour>
    <contour>
      <point x="566" y="46" type="curve"/>
      <point x="298" y="52"/>
      <point x="186" y="262"/>
      <point x="186" y="498" type="curve" smooth="yes"/>
      <point x="186" y="744"/>
      <point x="308" y="938"/>
      <point x="570" y="944" type="curve"/>
      <point x="682" y="942"/>
      <point x="814" y="886"/>
      <point x="912" y="768" type="curve"/>
      <point x="912" y="248" type="line"/>
      <point x="816" y="116"/>
      <point x="696" y="46"/>
    </contour>
  </outline>
</glyph>
<glyph name="e" format="2">
  <advance width="1056"/>
  <unicode hex="0065"/>
  <anchor x="578" y="0" name="bottom"/>
  <anchor x="738" y="0" name="ogonek"/>
  <anchor x="558" y="988" name="top"/>
  <outline>
    <contour>
      <point x="618" y="-18" type="curve" smooth="yes"/>
      <point x="736" y="-18"/>
      <point x="850" y="26"/>
      <point x="926" y="52" type="curve"/>
      <point x="920" y="126" type="line"/>
      <point x="812" y="74"/>
      <point x="706" y="46"/>
      <point x="618" y="46" type="curve" smooth="yes"/>
      <point x="324" y="46"/>
      <point x="186" y="222"/>
      <point x="186" y="498" type="curve"/>
      <point x="186" y="502" type="line"/>
      <point x="186" y="758"/>
      <point x="322" y="938"/>
      <point x="566" y="944" type="curve"/>
      <point x="758" y="938"/>
      <point x="886" y="832"/>
      <point x="886" y="590" type="curve" smooth="yes"/>
      <point x="886" y="570"/>
      <point x="886" y="550"/>
      <point x="884" y="528" type="curve"/>
      <point x="938" y="474" type="line"/>
      <point x="944" y="512"/>
      <point x="946" y="548"/>
      <point x="946" y="594" type="curve" smooth="yes"/>
      <point x="946" y="854"/>
      <point x="798" y="1008"/>
      <point x="564" y="1008" type="curve" smooth="yes"/>
      <point x="302" y="1008"/>
      <point x="124" y="796"/>
      <point x="124" y="502" type="curve" smooth="yes"/>
      <point x="124" y="202"/>
      <point x="286" y="-18"/>
    </contour>
    <contour>
      <point x="156" y="474" type="line"/>
      <point x="938" y="474" type="line"/>
      <point x="938" y="536" type="line"/>
      <point x="894" y="534" type="line"/>
      <point x="156" y="534" type="line"/>
    </contour>
  </outline>
</glyph>
<glyph name="f" format="2">
  <advance width="766"/>
  <unicode hex="0066"/>
  <outline>
    <contour>
      <point x="260" y="0" type="curve"/>
      <point x="330" y="0" type="line"/>
      <point x="324" y="150"/>
      <point x="324" y="280"/>
      <point x="324" y="442" type="curve"/>
      <point x="324" y="960" type="line"/>
      <point x="324" y="988" type="line"/>
      <point x="324" y="1014"/>
      <point x="324" y="1088"/>
      <point x="324" y="1142" type="curve" smooth="yes"/>
      <point x="324" y="1328"/>
      <point x="402" y="1424"/>
      <point x="596" y="1424" type="curve" smooth="yes"/>
      <point x="644" y="1424"/>
      <point x="700" y="1414"/>
      <point x="740" y="1402" type="curve"/>
      <point x="748" y="1472" type="line"/>
      <point x="710" y="1478"/>
      <point x="644" y="1488"/>
      <point x="596" y="1488" type="curve" smooth="yes"/>
      <point x="410" y="1488"/>
      <point x="262" y="1398"/>
      <point x="262" y="1142" type="curve" smooth="yes"/>
      <point x="262" y="880"/>
      <point x="264" y="708"/>
      <point x="264" y="540" type="curve"/>
      <point x="264" y="442" type="line"/>
      <point x="264" y="280"/>
      <point x="264" y="150"/>
    </contour>
    <contour>
      <point x="58" y="926" type="line"/>
      <point x="282" y="936" type="line"/>
      <point x="298" y="936" type="line"/>
      <point x="434" y="936"/>
      <point x="570" y="934"/>
      <point x="710" y="926" type="curve"/>
      <point x="710" y="988" type="line"/>
      <point x="58" y="988" type="line"/>
    </contour>
  </outline>
</glyph>
<glyph name="g" format="2">
  <advance width="1072"/>
  <unicode hex="0067"/>
  <anchor x="532" y="-384" name="bottom"/>
  <anchor x="498" y="988" name="top"/>
  <outline>
    <contour>
      <point x="494" y="-404" type="curve" smooth="yes"/>
      <point x="706" y="-404"/>
      <point x="956" y="-290"/>
      <point x="956" y="-92" type="curve" smooth="yes"/>
      <point x="956" y="48"/>
      <point x="856" y="110"/>
      <point x="562" y="110" type="curve" smooth="yes"/>
      <point x="516" y="110" type="line" smooth="yes"/>
      <point x="344" y="110"/>
      <point x="278" y="134"/>
      <point x="278" y="212" type="curve" smooth="yes"/>
      <point x="278" y="288"/>
      <point x="352" y="314"/>
      <point x="518" y="354" type="curve" smooth="yes"/>
      <point x="722" y="402"/>
      <point x="840" y="494"/>
      <point x="840" y="684" type="curve" smooth="yes"/>
      <point x="840" y="800"/>
      <point x="784" y="906"/>
      <point x="642" y="964" type="curve"/>
      <point x="620" y="940" type="line"/>
      <point x="754" y="936"/>
      <point x="888" y="932"/>
      <point x="1026" y="924" type="curve"/>
      <point x="1026" y="988" type="line"/>
      <point x="690" y="988" type="line" smooth="yes"/>
      <point x="598" y="988"/>
      <point x="560" y="1008"/>
      <point x="478" y="1008" type="curve" smooth="yes"/>
      <point x="282" y="1008"/>
      <point x="120" y="888"/>
      <point x="120" y="692" type="curve" smooth="yes"/>
      <point x="120" y="494"/>
      <point x="300" y="398"/>
      <point x="358" y="376" type="curve"/>
      <point x="358" y="366" type="line"/>
      <point x="268" y="336"/>
      <point x="216" y="290"/>
      <point x="216" y="212" type="curve" smooth="yes"/>
      <point x="216" y="122"/>
      <point x="286" y="82"/>
      <point x="324" y="72" type="curve"/>
      <point x="324" y="62" type="line"/>
      <point x="254" y="40"/>
      <point x="124" y="-30"/>
      <point x="124" y="-166" type="curve" smooth="yes"/>
      <point x="124" y="-278"/>
      <point x="204" y="-404"/>
    </contour>
    <contour>
      <point x="490" y="-340" type="curve"/>
      <point x="254" y="-336"/>
      <point x="186" y="-258"/>
      <point x="186" y="-164" type="curve" smooth="yes"/>
      <point x="186" y="-32"/>
      <point x="346" y="22"/>
      <point x="458" y="48" type="curve"/>
      <point x="564" y="48" type="line" smooth="yes"/>
      <point x="832" y="48"/>
      <point x="894" y="8"/>
      <point x="894" y="-96" type="curve" smooth="yes"/>
      <point x="894" y="-204"/>
      <point x="754" y="-336"/>
    </contour>
    <contour>
      <point x="462" y="400" type="curve"/>
      <point x="330" y="436"/>
      <point x="182" y="524"/>
      <point x="182" y="692" type="curve" smooth="yes"/>
      <point x="182" y="868"/>
      <point x="318" y="942"/>
      <point x="484" y="944" type="curve"/>
      <point x="606" y="938"/>
      <point x="778" y="872"/>
      <point x="778" y="684" type="curve" smooth="yes"/>
      <point x="778" y="470"/>
      <point x="592" y="428"/>
    </contour>
  </outline>
</glyph>
<glyph name="m" format="2">
  <advance width="1754"/>
  <unicode hex="006D"/>
  <anchor x="902" y="0" name="bottom"/>
  <anchor x="902" y="988" name="top"/>
  <outline>
    <contour>
      <point x="216" y="0" type="curve"/>
      <point x="286" y="0" type="line"/>
      <point x="280" y="150"/>
      <point x="280" y="280"/>
      <point x="280" y="442" type="curve"/>
      <point x="280" y="692" type="line"/>
      <point x="380" y="836"/>
      <point x="526" y="944"/>
      <point x="640" y="944" type="curve" smooth="yes"/>
      <point x="816" y="944"/>
      <point x="872" y="844"/>
      <point x="872" y="652" type="curve"/>
      <point x="872" y="442" type="line"/>
      <point x="872" y="280"/>
      <point x="872" y="150"/>
      <point x="868" y="0" type="curve"/>
      <point x="938" y="0" type="line"/>
      <point x="932" y="150"/>
      <point x="932" y="280"/>
      <point x="932" y="442" type="curve"/>
      <point x="932" y="494"/>
      <point x="934" y="566"/>
      <point x="934" y="652" type="curve" smooth="yes"/>
      <point x="934" y="690"/>
      <point x="932" y="726"/>
      <point x="926" y="758" type="curve"/>
      <point x="924" y="766" type="line"/>
      <point x="900" y="924"/>
      <point x="812" y="1008"/>
      <point x="644" y="1008" type="curve" smooth="yes"/>
      <point x="496" y="1008"/>
      <point x="364" y="884"/>
      <point x="292" y="800" type="curve"/>
      <point x="280" y="800" type="line"/>
      <point x="262" y="994" type="line"/>
      <point x="202" y="988" type="line"/>
      <point x="216" y="840"/>
      <point x="220" y="684"/>
      <point x="220" y="542" type="curve"/>
      <point x="220" y="442" type="line"/>
      <point x="220" y="280"/>
      <point x="220" y="150"/>
    </contour>
    <contour>
      <point x="1510" y="0" type="curve"/>
      <point x="1580" y="0" type="line"/>
      <point x="1574" y="150"/>
      <point x="1574" y="280"/>
      <point x="1574" y="442" type="curve"/>
      <point x="1574" y="494"/>
      <point x="1576" y="566"/>
      <point x="1576" y="652" type="curve" smooth="yes"/>
      <point x="1576" y="880"/>
      <point x="1492" y="1008"/>
      <point x="1286" y="1008" type="curve" smooth="yes"/>
      <point x="1138" y="1008"/>
      <point x="1010" y="888"/>
      <point x="928" y="794" type="curve"/>
      <point x="916" y="794" type="line"/>
      <point x="922" y="692" type="line"/>
      <point x="1022" y="836"/>
      <point x="1168" y="944"/>
      <point x="1282" y="944" type="curve" smooth="yes"/>
      <point x="1456" y="944"/>
      <point x="1514" y="844"/>
      <point x="1514" y="652" type="curve"/>
      <point x="1514" y="442" type="line"/>
      <point x="1514" y="280"/>
      <point x="1514" y="150"/>
    </contour>
  </outline>
</glyph>
<glyph name="o" format="2">
  <advance width="1194"/>
  <unicode hex="006F"/>
  <anchor x="596" y="0" name="bottom"/>
  <anchor x="596" y="494" name="center"/>
  <anchor x="726" y="0" name="ogonek"/>
  <anchor x="596" y="988" name="top"/>
  <anchor x="1076" y="988" name="topright"/>
  <outline>
    <contour>
      <point x="600" y="-18" type="curve" smooth="yes"/>
      <point x="880" y="-18"/>
      <point x="1070" y="212"/>
      <point x="1070" y="502" type="curve" smooth="yes"/>
      <point x="1070" y="790"/>
      <point x="888" y="1008"/>
      <point x="600" y="1008" type="curve" smooth="yes"/>
      <point x="320" y="1008"/>
      <point x="124" y="798"/>
      <point x="124" y="502" type="curve" smooth="yes"/>
      <point x="124" y="226"/>
      <point x="300" y="-18"/>
    </contour>
    <contour>
      <point x="600" y="46" type="curve"/>
      <point x="316" y="52"/>
      <point x="186" y="268"/>
      <point x="186" y="502" type="curve" smooth="yes"/>
      <point x="186" y="748"/>
      <point x="324" y="938"/>
      <point x="600" y="944" type="curve"/>
      <point x="858" y="938"/>
      <point x="1008" y="764"/>
      <point x="1008" y="502" type="curve" smooth="yes"/>
      <point x="1008" y="268"/>
      <point x="882" y="52"/>
    </contour>
  </outline>
</glyph>
<glyph name="r" format="2">
  <advance width="788"/>
  <unicode hex="0072"/>
  <anchor x="240" y="0" name="bottom"/>
  <anchor x="464" y="988" name="top"/>
  <outline>
    <contour>
      <point x="216" y="0" type="curve"/>
      <point x="286" y="0" type="line"/>
      <point x="280" y="150"/>
      <point x="280" y="280"/>
      <point x="280" y="442" type="curve"/>
      <point x="280" y="638" type="line"/>
      <point x="400" y="916"/>
      <point x="536" y="944"/>
      <point x="612" y="944" type="curve" smooth="yes"/>
      <point x="646" y="944"/>
      <point x="686" y="934"/>
      <point x="722" y="920" type="curve"/>
      <point x="728" y="992" type="line"/>
      <point x="694" y="1002"/>
      <point x="658" y="1008"/>
      <point x="616" y="1008" type="curve" smooth="yes"/>
      <point x="530" y="1008"/>
      <point x="390" y="970"/>
      <point x="286" y="772" type="curve"/>
      <point x="276" y="772" type="line"/>
      <point x="262" y="994" type="line"/>
      <point x="202" y="988" type="line"/>
      <point x="216" y="840"/>
      <point x="220" y="684"/>
      <point x="220" y="542" type="curve"/>
      <point x="220" y="442" type="line"/>
      <point x="220" y="280"/>
      <point x="220" y="150"/>
    </contour>
  </outline>
</glyph>
<glyph name="t" format="2">
  <advance width="800"/>
  <unicode hex="0074"/>
  <anchor x="474" y="0" name="bottom"/>
  <anchor x="410" y="494" name="center"/>
  <anchor x="390" y="1248" name="top"/>
  <anchor x="430" y="988" name="topright"/>
  <outline>
    <contour>
      <point x="546" y="-18" type="curve" smooth="yes"/>
      <point x="620" y="-18"/>
      <point x="700" y="10"/>
      <point x="734" y="30" type="curve"/>
      <point x="722" y="102" type="line"/>
      <point x="672" y="70"/>
      <point x="594" y="46"/>
      <point x="550" y="46" type="curve" smooth="yes"/>
      <point x="404" y="46"/>
      <point x="332" y="124"/>
      <point x="332" y="286" type="curve" smooth="yes"/>
      <point x="332" y="960" type="line"/>
      <point x="332" y="1100"/>
      <point x="332" y="1188"/>
      <point x="336" y="1330" type="curve"/>
      <point x="266" y="1308" type="line"/>
      <point x="272" y="1188"/>
      <point x="272" y="1084"/>
      <point x="272" y="960" type="curve"/>
      <point x="272" y="828"/>
      <point x="270" y="568"/>
      <point x="270" y="290" type="curve" smooth="yes"/>
      <point x="270" y="88"/>
      <point x="366" y="-18"/>
    </contour>
    <contour>
      <point x="58" y="926" type="line"/>
      <point x="282" y="936" type="line"/>
      <point x="298" y="936" type="line"/>
      <point x="434" y="936"/>
      <point x="580" y="934"/>
      <point x="720" y="926" type="curve"/>
      <point x="720" y="988" type="line"/>
      <point x="58" y="988" type="line"/>
    </contour>
  </outline>
</glyph>
<glyph name="u" format="2">
  <advance width="1098"/>
  <unicode hex="0075"/>
  <anchor x="550" y="0" name="bottom"/>
  <anchor x="924" y="0" name="ogonek"/>
  <anchor x="550" y="988" name="top"/>
  <anchor x="1036" y="988" name="topright"/>
  <outline>
    <contour>
      <point x="484" y="-18" type="curve" smooth="yes"/>
      <point x="622" y="-18"/>
      <point x="774" y="106"/>
      <point x="846" y="190" type="curve"/>
      <point x="858" y="190" type="line"/>
      <point x="864" y="0" type="line"/>
      <point x="924" y="0" type="line"/>
      <point x="918" y="150"/>
      <point x="918" y="280"/>
      <point x="918" y="442" type="curve" smooth="yes"/>
      <point x="918" y="542" type="line"/>
      <point x="918" y="704"/>
      <point x="918" y="838"/>
      <point x="924" y="988" type="curve"/>
      <point x="852" y="988" type="line"/>
      <point x="858" y="838"/>
      <point x="858" y="704"/>
      <point x="858" y="542" type="curve"/>
      <point x="858" y="298" type="line"/>
      <point x="758" y="154"/>
      <point x="590" y="46"/>
      <point x="486" y="46" type="curve" smooth="yes"/>
      <point x="300" y="46"/>
      <point x="240" y="146"/>
      <point x="240" y="338" type="curve"/>
      <point x="240" y="542" type="line"/>
      <point x="240" y="704"/>
      <point x="240" y="842"/>
      <point x="246" y="992" type="curve"/>
      <point x="174" y="988" type="line"/>
      <point x="180" y="838"/>
      <point x="180" y="704"/>
      <point x="180" y="542" type="curve"/>
      <point x="180" y="484"/>
      <point x="178" y="424"/>
      <point x="178" y="338" type="curve" smooth="yes"/>
      <point x="178" y="110"/>
      <point x="262" y="-18"/>
    </contour>
  </outline>
</glyph>
<glyph name="v" format="2">
  <advance width="992"/>
  <unicode hex="0076"/>
  <outline>
    <contour>
      <point x="450" y="0" type="curve"/>
      <point x="538" y="0" type="line"/>
      <point x="584" y="124"/>
      <point x="630" y="246"/>
      <point x="678" y="370" type="curve"/>
      <point x="746" y="546" type="line"/>
      <point x="802" y="692"/>
      <point x="860" y="842"/>
      <point x="926" y="988" type="curve"/>
      <point x="848" y="988" type="line"/>
      <point x="782" y="802"/>
      <point x="712" y="620"/>
      <point x="638" y="430" type="curve"/>
      <point x="500" y="70" type="line"/>
      <point x="488" y="70" type="line"/>
      <point x="350" y="430" type="line"/>
      <point x="276" y="620"/>
      <point x="206" y="802"/>
      <point x="140" y="992" type="curve"/>
      <point x="66" y="988" type="line"/>
      <point x="124" y="844"/>
      <point x="184" y="694"/>
      <point x="240" y="550" type="curve"/>
      <point x="308" y="374" type="line"/>
      <point x="354" y="254"/>
      <point x="404" y="124"/>
    </contour>
  </outline>
</glyph>
<glyph name="w" format="2">
  <advance width="1570"/>
  <unicode hex="0077"/>
  <anchor x="788" y="0" name="bottom"/>
  <anchor x="788" y="988" name="top"/>
  <outline>
    <contour>
      <point x="406" y="0" type="curve"/>
      <point x="494" y="0" type="line"/>
      <point x="548" y="180"/>
      <point x="612" y="376"/>
      <point x="668" y="550" type="curve"/>
      <point x="778" y="892" type="line"/>
      <point x="790" y="892" type="line"/>
      <point x="900" y="554" type="line"/>
      <point x="958" y="380"/>
      <point x="1024" y="180"/>
      <point x="1080" y="0" type="curve"/>
      <point x="1170" y="0" type="line"/>
      <point x="1208" y="122"/>
      <point x="1250" y="250"/>
      <point x="1292" y="378" type="curve"/>
      <point x="1350" y="552" type="line"/>
      <point x="1398" y="696"/>
      <point x="1448" y="842"/>
      <point x="1504" y="988" type="curve"/>
      <point x="1428" y="988" type="line"/>
      <point x="1376" y="824"/>
      <point x="1308" y="614"/>
      <point x="1248" y="432" type="curve"/>
      <point x="1130" y="72" type="line"/>
      <point x="1120" y="72" type="line"/>
      <point x="1002" y="430" type="line"/>
      <point x="942" y="614"/>
      <point x="878" y="808"/>
      <point x="822" y="988" type="curve"/>
      <point x="746" y="988" type="line"/>
      <point x="688" y="798"/>
      <point x="628" y="610"/>
      <point x="568" y="426" type="curve"/>
      <point x="454" y="72" type="line"/>
      <point x="444" y="72" type="line"/>
      <point x="328" y="416" type="line"/>
      <point x="266" y="600"/>
      <point x="198" y="810"/>
      <point x="140" y="992" type="curve"/>
      <point x="66" y="988" type="line"/>
      <point x="122" y="840"/>
      <point x="170" y="698"/>
      <point x="220" y="552" type="curve"/>
      <point x="280" y="376" type="line"/>
      <point x="324" y="248"/>
      <point x="366" y="124"/>
    </contour>
  </outline>
</glyph>
<glyph name="braceleft" format="2">
  <advance width="744"/>
  <unicode hex="007B"/>
  <outline>
    <contour>
      <point x="570" y="-224" type="curve" smooth="yes"/>
      <point x="724" y="-224" type="line"/>
      <point x="724" y="-162" type="line"/>
      <point x="656" y="-164"/>
      <point x="604" y="-164"/>
      <point x="570" y="-164" type="curve"/>
      <point x="422" y="-162"/>
      <point x="348" y="-98"/>
      <point x="348" y="26" type="curve" smooth="yes"/>
      <point x="346" y="406" type="line" smooth="yes"/>
      <point x="346" y="562"/>
      <point x="284" y="604"/>
      <point x="202" y="642" type="curve"/>
      <point x="202" y="654" type="line"/>
      <point x="284" y="690"/>
      <point x="346" y="734"/>
      <point x="346" y="888" type="curve" smooth="yes"/>
      <point x="348" y="1270" type="line" smooth="yes"/>
      <point x="348" y="1394"/>
      <point x="422" y="1458"/>
      <point x="570" y="1460" type="curve"/>
      <point x="606" y="1460"/>
      <point x="660" y="1460"/>
      <point x="724" y="1458" type="curve"/>
      <point x="724" y="1520" type="line"/>
      <point x="570" y="1520" type="line" smooth="yes"/>
      <point x="392" y="1520"/>
      <point x="282" y="1430"/>
      <point x="282" y="1270" type="curve"/>
      <point x="282" y="1144"/>
      <point x="284" y="1018"/>
      <point x="284" y="892" type="curve"/>
      <point x="284" y="732"/>
      <point x="178" y="676"/>
      <point x="76" y="676" type="curve" smooth="yes"/>
      <point x="20" y="676" type="line"/>
      <point x="20" y="618" type="line"/>
      <point x="76" y="618" type="line" smooth="yes"/>
      <point x="178" y="618"/>
      <point x="284" y="562"/>
      <point x="284" y="402" type="curve"/>
      <point x="284" y="276"/>
      <point x="282" y="152"/>
      <point x="282" y="26" type="curve"/>
      <point x="282" y="-134"/>
      <point x="392" y="-224"/>
    </contour>
  </outline>
</glyph>
<glyph name="sterling" format="2">
  <advance width="1158"/>
  <unicode hex="00A3"/>
  <outline>
    <contour>
      <point x="150" y="0" type="line"/>
      <point x="1088" y="0" type="line"/>
      <point x="1088" y="66" type="line"/>
      <point x="910" y="60"/>
      <point x="754" y="60"/>
      <point x="488" y="60" type="curve"/>
      <point x="192" y="60" type="line"/>
      <point x="202" y="22" type="line"/>
      <point x="360" y="184"/>
      <point x="372" y="318"/>
      <point x="372" y="438" type="curve" smooth="yes"/>
      <point x="372" y="916" type="line" smooth="yes"/>
      <point x="372" y="1200"/>
      <point x="488" y="1326"/>
      <point x="726" y="1328" type="curve"/>
      <point x="778" y="1328"/>
      <point x="888" y="1304"/>
      <point x="1016" y="1246" type="curve"/>
      <point x="1026" y="1316" type="line"/>
      <point x="948" y="1346"/>
      <point x="824" y="1392"/>
      <point x="724" y="1392" type="curve" smooth="yes"/>
      <point x="474" y="1392"/>
      <point x="308" y="1244"/>
      <point x="308" y="924" type="curve" smooth="yes"/>
      <point x="308" y="762"/>
      <point x="310" y="602"/>
      <point x="310" y="440" type="curve"/>
      <point x="310" y="340"/>
      <point x="300" y="200"/>
      <point x="150" y="54" type="curve"/>
    </contour>
    <contour>
      <point x="132" y="734" type="line"/>
      <point x="248" y="738"/>
      <point x="358" y="738"/>
      <point x="452" y="738" type="curve"/>
      <point x="512" y="738" type="line"/>
      <point x="606" y="738"/>
      <point x="716" y="738"/>
      <point x="832" y="734" type="curve"/>
      <point x="832" y="798" type="line"/>
      <point x="716" y="794"/>
      <point x="606" y="794"/>
      <point x="512" y="794" type="curve"/>
      <point x="452" y="794" type="line"/>
      <point x="358" y="794"/>
      <point x="248" y="794"/>
      <point x="132" y="798" type="curve"/>
    </contour>
  </outline>
</glyph>
<glyph name="currency" format="2">
  <advance width="1200"/>
  <unicode hex="00A4"/>
  <outline>
    <contour>
      <point x="596" y="260" type="curve" smooth="yes"/>
      <point x="812" y="260"/>
      <point x="974" y="408"/>
      <point x="974" y="640" type="curve" smooth="yes"/>
      <point x="974" y="866"/>
      <point x="814" y="1022"/>
      <point x="600" y="1022" type="curve" smooth="yes"/>
      <point x="382" y="1022"/>
      <point x="222" y="864"/>
      <point x="222" y="640" type="curve" smooth="yes"/>
      <point x="222" y="408"/>
      <point x="382" y="260"/>
    </contour>
    <contour>
      <point x="158" y="152" type="line"/>
      <point x="236" y="236"/>
      <point x="314" y="314"/>
      <point x="380" y="380" type="curve"/>
      <point x="338" y="422" type="line"/>
      <point x="272" y="356"/>
      <point x="194" y="278"/>
      <point x="110" y="200" type="curve"/>
    </contour>
    <contour>
      <point x="596" y="324" type="curve"/>
      <point x="424" y="328"/>
      <point x="286" y="424"/>
      <point x="286" y="640" type="curve" smooth="yes"/>
      <point x="286" y="844"/>
      <point x="426" y="954"/>
      <point x="600" y="958" type="curve"/>
      <point x="772" y="954"/>
      <point x="910" y="844"/>
      <point x="910" y="640" type="curve" smooth="yes"/>
      <point x="910" y="424"/>
      <point x="772" y="328"/>
    </contour>
    <contour>
      <point x="338" y="862" type="curve"/>
      <point x="380" y="904" type="line"/>
      <point x="314" y="970"/>
      <point x="236" y="1048"/>
      <point x="158" y="1132" type="curve"/>
      <point x="110" y="1084" type="line"/>
      <point x="194" y="1006"/>
      <point x="272" y="928"/>
    </contour>
    <contour>
      <point x="1042" y="152" type="curve"/>
      <point x="1090" y="200" type="line"/>
      <point x="1006" y="278"/>
      <point x="928" y="356"/>
      <point x="862" y="422" type="curve"/>
      <point x="820" y="380" type="line"/>
      <point x="886" y="314"/>
      <point x="964" y="236"/>
    </contour>
    <contour>
      <point x="862" y="862" type="line"/>
      <point x="928" y="928"/>
      <point x="1006" y="1006"/>
      <point x="1090" y="1084" type="curve"/>
      <point x="1042" y="1132" type="line"/>
      <point x="964" y="1048"/>
      <point x="886" y="970"/>
      <point x="820" y="904" type="curve"/>
    </contour>
  </outline>
</glyph>
<glyph name="yen" format="2">
  <advance width="1206"/>
  <unicode hex="00A5"/>
  <outline>
    <contour>
      <point x="574" y="576" type="line"/>
      <point x="632" y="576" type="line"/>
      <point x="940" y="1056" type="line"/>
      <point x="1004" y="1156"/>
      <point x="1076" y="1268"/>
      <point x="1146" y="1368" type="curve"/>
      <point x="1062" y="1368" type="line"/>
      <point x="938" y="1168"/>
      <point x="874" y="1068"/>
      <point x="774" y="912" type="curve"/>
      <point x="608" y="652" type="line"/>
      <point x="596" y="652" type="line"/>
      <point x="432" y="910" type="line"/>
      <point x="330" y="1070"/>
      <point x="268" y="1168"/>
      <point x="144" y="1368" type="curve"/>
      <point x="60" y="1368" type="line"/>
      <point x="166" y="1212"/>
      <point x="208" y="1146"/>
      <point x="266" y="1056" type="curve"/>
    </contour>
    <contour>
      <point x="568" y="0" type="curve"/>
      <point x="640" y="0" type="line"/>
      <point x="634" y="156"/>
      <point x="634" y="290"/>
      <point x="634" y="456" type="curve"/>
      <point x="634" y="626" type="line"/>
      <point x="572" y="626" type="line"/>
      <point x="572" y="456" type="line"/>
      <point x="572" y="290"/>
      <point x="572" y="156"/>
    </contour>
    <contour>
      <point x="174" y="312" type="line"/>
      <point x="290" y="316"/>
      <point x="400" y="316"/>
      <point x="494" y="316" type="curve"/>
      <point x="714" y="316" type="line"/>
      <point x="808" y="316"/>
      <point x="918" y="316"/>
      <point x="1034" y="312" type="curve"/>
      <point x="1034" y="376" type="line"/>
      <point x="918" y="372"/>
      <point x="808" y="372"/>
      <point x="714" y="372" type="curve"/>
      <point x="494" y="372" type="line"/>
      <point x="400" y="372"/>
      <point x="290" y="372"/>
      <point x="174" y="376" type="curve"/>
    </contour>
    <contour>
      <point x="174" y="572" type="line"/>
      <point x="290" y="576"/>
      <point x="400" y="576"/>
      <point x="494" y="576" type="curve"/>
      <point x="714" y="576" type="line"/>
      <point x="808" y="576"/>
      <point x="918" y="576"/>
      <point x="1034" y="572" type="curve"/>
      <point x="1034" y="636" type="line"/>
      <point x="918" y="632"/>
      <point x="808" y="632"/>
      <point x="714" y="632" type="curve"/>
      <point x="494" y="632" type="line"/>
      <point x="400" y="632"/>
      <point x="290" y="632"/>
      <point x="174" y="636" type="curve"/>
    </contour>
  </outline>
</glyph>
<glyph name="degree" format="2">
  <advance width="908"/>
  <unicode hex="00B0"/>
  <outline>
    <contour>
      <point x="454" y="656" type="curve" smooth="yes"/>
      <point x="670" y="656"/>
      <point x="828" y="802"/>
      <point x="828" y="1020" type="curve" smooth="yes"/>
      <point x="828" y="1232"/>
      <point x="670" y="1392"/>
      <point x="456" y="1392" type="curve" smooth="yes"/>
      <point x="240" y="1392"/>
      <point x="80" y="1232"/>
      <point x="80" y="1020" type="curve" smooth="yes"/>
      <point x="80" y="802"/>
      <point x="240" y="656"/>
    </contour>
    <contour>
      <point x="454" y="718" type="curve"/>
      <point x="264" y="722"/>
      <point x="142" y="832"/>
      <point x="142" y="1020" type="curve" smooth="yes"/>
      <point x="142" y="1202"/>
      <point x="264" y="1326"/>
      <point x="456" y="1330" type="curve"/>
      <point x="646" y="1326"/>
      <point x="766" y="1202"/>
      <point x="766" y="1020" type="curve" smooth="yes"/>
      <point x="766" y="832"/>
      <point x="646" y="722"/>
    </contour>
  </outline>
</glyph>
<glyph name="plusminus" format="2">
  <advance width="1120"/>
  <unicode hex="00B1"/>
  <outline>
    <contour>
      <point x="140" y="-4" type="line"/>
      <point x="256" y="0"/>
      <point x="366" y="0"/>
      <point x="460" y="0" type="curve"/>
      <point x="660" y="0" type="line"/>
      <point x="754" y="0"/>
      <point x="864" y="0"/>
      <point x="980" y="-4" type="curve"/>
      <point x="980" y="64" type="line"/>
      <point x="864" y="60"/>
      <point x="754" y="60"/>
      <point x="660" y="60" type="curve"/>
      <point x="460" y="60" type="line"/>
      <point x="366" y="60"/>
      <point x="256" y="60"/>
      <point x="140" y="64" type="curve"/>
    </contour>
    <contour>
      <point x="140" y="702" type="line"/>
      <point x="256" y="706"/>
      <point x="366" y="706"/>
      <point x="460" y="706" type="curve"/>
      <point x="660" y="706" type="line"/>
      <point x="754" y="706"/>
      <point x="864" y="706"/>
      <point x="980" y="702" type="curve"/>
      <point x="980" y="770" type="line"/>
      <point x="864" y="766"/>
      <point x="754" y="766"/>
      <point x="660" y="766" type="curve"/>
      <point x="460" y="766" type="line"/>
      <point x="366" y="766"/>
      <point x="256" y="766"/>
      <point x="140" y="770" type="curve"/>
    </contour>
    <contour>
      <point x="526" y="276" type="curve"/>
      <point x="594" y="276" type="line"/>
      <point x="590" y="392"/>
      <point x="590" y="502"/>
      <point x="590" y="596" type="curve"/>
      <point x="590" y="876" type="line"/>
      <point x="590" y="970"/>
      <point x="590" y="1080"/>
      <point x="594" y="1196" type="curve"/>
      <point x="526" y="1196" type="line"/>
      <point x="530" y="1080"/>
      <point x="530" y="970"/>
      <point x="530" y="876" type="curve"/>
      <point x="530" y="596" type="line"/>
      <point x="530" y="502"/>
      <point x="530" y="392"/>
    </contour>
  </outline>
</glyph>
<glyph name="ordmasculine" format="2">
  <advance width="904"/>
  <unicode hex="00BA"/>
  <outline>
    <contour>
      <point x="454" y="670" type="curve" smooth="yes"/>
      <point x="670" y="670"/>
      <point x="814" y="846"/>
      <point x="814" y="1066" type="curve" smooth="yes"/>
      <point x="814" y="1284"/>
      <point x="676" y="1450"/>
      <point x="454" y="1450" type="curve" smooth="yes"/>
      <point x="238" y="1450"/>
      <point x="90" y="1290"/>
      <point x="90" y="1066" type="curve" smooth="yes"/>
      <point x="90" y="856"/>
      <point x="224" y="670"/>
    </contour>
    <contour>
      <point x="454" y="730" type="curve"/>
      <point x="246" y="734"/>
      <point x="150" y="892"/>
      <point x="150" y="1066" type="curve" smooth="yes"/>
      <point x="150" y="1248"/>
      <point x="252" y="1386"/>
      <point x="454" y="1390" type="curve"/>
      <point x="644" y="1386"/>
      <point x="754" y="1260"/>
      <point x="754" y="1066" type="curve" smooth="yes"/>
      <point x="754" y="894"/>
      <point x="662" y="734"/>
    </contour>
  </outline>
</glyph>
<glyph name="Oslash" format="2">
  <advance width="1638"/>
  <unicode hex="00D8"/>
  <anchor x="818" y="0" name="bottom"/>
  <anchor x="818" y="714" name="center"/>
  <anchor x="988" y="0" name="ogonek"/>
  <anchor x="818" y="1426" name="top"/>
  <anchor x="54" y="1426" name="topleft"/>
  <anchor x="1444" y="1426" name="topright"/>
  <outline>
    <contour>
      <point x="826" y="-18" type="curve" smooth="yes"/>
      <point x="1250" y="-18"/>
      <point x="1518" y="296"/>
      <point x="1518" y="716" type="curve" smooth="yes"/>
      <point x="1518" y="1124"/>
      <point x="1262" y="1450"/>
      <point x="822" y="1450" type="curve" smooth="yes"/>
      <point x="390" y="1450"/>
      <point x="120" y="1130"/>
      <point x="120" y="716" type="curve" smooth="yes"/>
      <point x="120" y="316"/>
      <point x="366" y="-18"/>
    </contour>
    <contour>
      <point x="822" y="48" type="curve"/>
      <point x="380" y="56"/>
      <point x="186" y="360"/>
      <point x="186" y="716" type="curve" smooth="yes"/>
      <point x="186" y="1070"/>
      <point x="388" y="1376"/>
      <point x="822" y="1384" type="curve"/>
      <point x="1242" y="1376"/>
      <point x="1452" y="1094"/>
      <point x="1452" y="716" type="curve" smooth="yes"/>
      <point x="1452" y="368"/>
      <point x="1264" y="56"/>
    </contour>
    <contour>
      <point x="246" y="-114" type="line"/>
      <point x="378" y="60"/>
      <point x="498" y="218"/>
      <point x="644" y="406" type="curve"/>
      <point x="1038" y="926" type="line"/>
      <point x="1184" y="1116"/>
      <point x="1304" y="1270"/>
      <point x="1442" y="1446" type="curve"/>
      <point x="1384" y="1490" type="line"/>
      <point x="1254" y="1312"/>
      <point x="1134" y="1154"/>
      <point x="986" y="960" type="curve"/>
      <point x="596" y="446" type="line"/>
      <point x="452" y="258"/>
      <point x="334" y="110"/>
      <point x="192" y="-68" type="curve"/>
    </contour>
  </outline>
</glyph>
<glyph name="divide" format="2">
  <advance width="1120"/>
  <unicode hex="00F7"/>
  <outline>
    <contour>
      <point x="140" y="556" type="line"/>
      <point x="256" y="560"/>
      <point x="366" y="560"/>
      <point x="460" y="560" type="curve"/>
      <point x="660" y="560" type="line"/>
      <point x="754" y="560"/>
      <point x="864" y="560"/>
      <point x="980" y="556" type="curve"/>
      <point x="980" y="624" type="line"/>
      <point x="864" y="620"/>
      <point x="754" y="620"/>
      <point x="660" y="620" type="curve"/>
      <point x="460" y="620" type="line"/>
      <point x="366" y="620"/>
      <point x="256" y="620"/>
      <point x="140" y="624" type="curve"/>
    </contour>
    <contour>
      <point x="558" y="160" type="curve" smooth="yes"/>
      <point x="614" y="160"/>
      <point x="648" y="188"/>
      <point x="648" y="256" type="curve" smooth="yes"/>
      <point x="648" y="314"/>
      <point x="614" y="340"/>
      <point x="558" y="340" type="curve" smooth="yes"/>
      <point x="504" y="340"/>
      <point x="468" y="314"/>
      <point x="468" y="256" type="curve" smooth="yes"/>
      <point x="468" y="188"/>
      <point x="504" y="160"/>
    </contour>
    <contour>
      <point x="558" y="836" type="curve" smooth="yes"/>
      <point x="614" y="836"/>
      <point x="648" y="864"/>
      <point x="648" y="932" type="curve" smooth="yes"/>
      <point x="648" y="990"/>
      <point x="614" y="1016"/>
      <point x="558" y="1016" type="curve" smooth="yes"/>
      <point x="504" y="1016"/>
      <point x="468" y="990"/>
      <point x="468" y="932" type="curve" smooth="yes"/>
      <point x="468" y="864"/>
      <point x="504" y="836"/>
    </contour>
  </outline>
</glyph>
<glyph name="dcroat" format="2">
  <advance width="1144"/>
  <unicode hex="0111"/>
  <outline>
    <contour>
      <point x="514" y="1220" type="line"/>
      <point x="624" y="1224"/>
      <point x="726" y="1224"/>
      <point x="812" y="1224" type="curve"/>
      <point x="896" y="1224" type="line"/>
      <point x="982" y="1224"/>
      <point x="1084" y="1224"/>
      <point x="1194" y="1220" type="curve"/>
      <point x="1194" y="1280" type="line"/>
      <point x="1084" y="1280"/>
      <point x="982" y="1280"/>
      <point x="896" y="1280" type="curve"/>
      <point x="812" y="1280" type="line"/>
      <point x="726" y="1280"/>
      <point x="624" y="1280"/>
      <point x="514" y="1284" type="curve"/>
    </contour>
    <contour>
      <point x="566" y="-18" type="curve" smooth="yes"/>
      <point x="682" y="-18"/>
      <point x="802" y="38"/>
      <point x="902" y="142" type="curve"/>
      <point x="914" y="142" type="line"/>
      <point x="918" y="0" type="line"/>
      <point x="978" y="0" type="line"/>
      <point x="972" y="150"/>
      <point x="972" y="280"/>
      <point x="972" y="442" type="curve"/>
      <point x="972" y="988" type="line"/>
      <point x="972" y="1158"/>
      <point x="972" y="1316"/>
      <point x="978" y="1480" type="curve"/>
      <point x="900" y="1458" type="line"/>
      <point x="908" y="1314"/>
      <point x="912" y="1158"/>
      <point x="912" y="988" type="curve"/>
      <point x="912" y="866" type="line"/>
      <point x="900" y="866" type="line"/>
      <point x="824" y="934"/>
      <point x="712" y="1008"/>
      <point x="570" y="1008" type="curve" smooth="yes"/>
      <point x="292" y="1008"/>
      <point x="124" y="792"/>
      <point x="124" y="498" type="curve" smooth="yes"/>
      <point x="124" y="220"/>
      <point x="274" y="-18"/>
    </contour>
    <contour>
      <point x="566" y="46" type="curve"/>
      <point x="298" y="52"/>
      <point x="186" y="262"/>
      <point x="186" y="498" type="curve" smooth="yes"/>
      <point x="186" y="744"/>
      <point x="308" y="938"/>
      <point x="570" y="944" type="curve"/>
      <point x="682" y="942"/>
      <point x="814" y="886"/>
      <point x="912" y="768" type="curve"/>
      <point x="912" y="248" type="line"/>
      <point x="816" y="116"/>
      <point x="696" y="46"/>
    </contour>
  </outline>
</glyph>
<glyph name="kgreenlandic" format="2">
  <advance width="1016"/>
  <unicode hex="0138"/>
  <outline>
    <contour>
      <point x="858" y="0" type="curve"/>
      <point x="968" y="0" type="line"/>
      <point x="824" y="114"/>
      <point x="684" y="226"/>
      <point x="546" y="340" type="curve"/>
      <point x="326" y="518" type="line"/>
      <point x="326" y="480" type="line"/>
      <point x="520" y="646" type="line"/>
      <point x="654" y="760"/>
      <point x="786" y="872"/>
      <point x="928" y="988" type="curve"/>
      <point x="822" y="988" type="line"/>
      <point x="714" y="890"/>
      <point x="598" y="790"/>
      <point x="484" y="692" type="curve"/>
      <point x="298" y="532" type="line"/>
      <point x="238" y="532" type="line"/>
      <point x="238" y="476" type="line"/>
      <point x="284" y="476" type="line"/>
      <point x="510" y="294" type="line"/>
      <point x="628" y="196"/>
      <point x="744" y="98"/>
    </contour>
    <contour>
      <point x="188" y="0" type="curve"/>
      <point x="258" y="0" type="line"/>
      <point x="252" y="150"/>
      <point x="252" y="280"/>
      <point x="252" y="442" type="curve"/>
      <point x="252" y="542" type="line"/>
      <point x="252" y="704"/>
      <point x="252" y="842"/>
      <point x="258" y="992" type="curve"/>
      <point x="186" y="988" type="line"/>
      <point x="192" y="838"/>
      <point x="192" y="704"/>
      <point x="192" y="542" type="curve"/>
      <point x="192" y="442" type="line"/>
      <point x="192" y="280"/>
      <point x="192" y="150"/>
    </contour>
  </outline>
</glyph>
<glyph name="tbar" format="2">
  <advance width="800"/>
  <unicode hex="0167"/>
  <outline>
    <contour>
      <point x="74" y="540" type="line"/>
      <point x="176" y="544"/>
      <point x="268" y="544"/>
      <point x="344" y="544" type="curve"/>
      <point x="424" y="544" type="line"/>
      <point x="500" y="544"/>
      <point x="592" y="544"/>
      <point x="694" y="540" type="curve"/>
      <point x="694" y="604" type="line"/>
      <point x="592" y="600"/>
      <point x="500" y="600"/>
      <point x="424" y="600" type="curve"/>
      <point x="344" y="600" type="line"/>
      <point x="268" y="600"/>
      <point x="176" y="600"/>
      <point x="74" y="604" type="curve"/>
    </contour>
    <contour>
      <point x="546" y="-18" type="curve" smooth="yes"/>
      <point x="620" y="-18"/>
      <point x="700" y="10"/>
      <point x="734" y="30" type="curve"/>
      <point x="722" y="102" type="line"/>
      <point x="672" y="70"/>
      <point x="594" y="46"/>
      <point x="550" y="46" type="curve" smooth="yes"/>
      <point x="404" y="46"/>
      <point x="332" y="124"/>
      <point x="332" y="286" type="curve" smooth="yes"/>
      <point x="332" y="960" type="line"/>
      <point x="332" y="1100"/>
      <point x="332" y="1188"/>
      <point x="336" y="1330" type="curve"/>
      <point x="266" y="1308" type="line"/>
      <point x="272" y="1188"/>
      <point x="272" y="1084"/>
      <point x="272" y="960" type="curve"/>
      <point x="272" y="828"/>
      <point x="270" y="568"/>
      <point x="270" y="290" type="curve" smooth="yes"/>
      <point x="270" y="88"/>
      <point x="366" y="-18"/>
    </contour>
    <contour>
      <point x="58" y="926" type="line"/>
      <point x="282" y="936" type="line"/>
      <point x="298" y="936" type="line"/>
      <point x="434" y="936"/>
      <point x="580" y="934"/>
      <point x="720" y="926" type="curve"/>
      <point x="720" y="988" type="line"/>
      <point x="58" y="988" type="line"/>
    </contour>
  </outline>
</glyph>
<glyph name="Schwa" format="2">
  <advance width="1586"/>
  <unicode hex="018F"/>
  <outline>
    <contour>
      <point x="804" y="-18" type="curve" smooth="yes"/>
      <point x="1224" y="-18"/>
      <point x="1466" y="296"/>
      <point x="1466" y="716" type="curve" smooth="yes"/>
      <point x="1466" y="1160"/>
      <point x="1204" y="1450"/>
      <point x="792" y="1450" type="curve" smooth="yes"/>
      <point x="568" y="1450"/>
      <point x="342" y="1340"/>
      <point x="228" y="1248" type="curve"/>
      <point x="242" y="1162" type="line"/>
      <point x="396" y="1304"/>
      <point x="608" y="1384"/>
      <point x="792" y="1384" type="curve"/>
      <point x="1174" y="1376"/>
      <point x="1398" y="1144"/>
      <point x="1400" y="722" type="curve"/>
      <point x="1400" y="716" type="line"/>
      <point x="1400" y="364"/>
      <point x="1238" y="56"/>
      <point x="800" y="48" type="curve"/>
      <point x="364" y="56"/>
      <point x="186" y="356"/>
      <point x="186" y="716" type="curve"/>
      <point x="170" y="694" type="line"/>
      <point x="1430" y="694" type="line"/>
      <point x="1430" y="756" type="line"/>
      <point x="120" y="756" type="line"/>
      <point x="120" y="716" type="line"/>
      <point x="120" y="316"/>
      <point x="350" y="-18"/>
    </contour>
  </outline>
</glyph>
<glyph name="verticallinemod" format="2">
  <advance width="380"/>
  <unicode hex="02C8"/>
  <outline>
    <contour>
      <point x="160" y="1068" type="curve"/>
      <point x="220" y="1068" type="line"/>
      <point x="220" y="1238"/>
      <point x="220" y="1396"/>
      <point x="226" y="1558" type="curve"/>
      <point x="154" y="1558" type="line"/>
      <point x="160" y="1396"/>
      <point x="160" y="1238"/>
    </contour>
  </outline>
</glyph>
<glyph name="tildecomb" format="2">
  <unicode hex="0303"/>
  <anchor x="600" y="988" name="_top"/>
  <anchor x="600" y="1350" name="top"/>
  <outline>
    <contour>
      <point x="762" y="1176" type="curve" smooth="yes"/>
      <point x="866" y="1176"/>
      <point x="928" y="1254"/>
      <point x="928" y="1398" type="curve"/>
      <point x="872" y="1398" type="line"/>
      <point x="864" y="1286"/>
      <point x="838" y="1242"/>
      <point x="764" y="1238" type="curve"/>
      <point x="644" y="1242"/>
      <point x="582" y="1424"/>
      <point x="438" y="1424" type="curve" smooth="yes"/>
      <point x="334" y="1424"/>
      <point x="272" y="1346"/>
      <point x="272" y="1202" type="curve"/>
      <point x="328" y="1202" type="line"/>
      <point x="334" y="1314"/>
      <point x="364" y="1358"/>
      <point x="436" y="1362" type="curve"/>
      <point x="556" y="1358"/>
      <point x="618" y="1176"/>
    </contour>
  </outline>
</glyph>
<glyph name="horncomb" format="2">
  <unicode hex="031B"/>
  <anchor x="600" y="988" name="_topright"/>
  <outline>
    <contour>
      <point x="478" y="752" type="line"/>
      <point x="642" y="752"/>
      <point x="742" y="844"/>
      <point x="742" y="1006" type="curve" smooth="yes"/>
      <point x="742" y="1074"/>
      <point x="720" y="1158"/>
      <point x="702" y="1226" type="curve"/>
      <point x="638" y="1222" type="line"/>
      <point x="660" y="1156"/>
      <point x="680" y="1064"/>
      <point x="682" y="1006" type="curve"/>
      <point x="682" y="902"/>
      <point x="644" y="808"/>
      <point x="448" y="808" type="curve"/>
    </contour>
  </outline>
</glyph>
<glyph name="Germandbls" format="2">
  <advance width="1412"/>
  <unicode hex="1E9E"/>
  <outline>
    <contour>
      <point x="844" y="-16" type="curve" smooth="yes"/>
      <point x="1176" y="-16"/>
      <point x="1314" y="162"/>
      <point x="1314" y="372" type="curve" smooth="yes"/>
      <point x="1314" y="586"/>
      <point x="1162" y="742"/>
      <point x="736" y="794" type="curve"/>
      <point x="748" y="772" type="line"/>
      <point x="958" y="982" type="line"/>
      <point x="1038" y="1062"/>
      <point x="1116" y="1136"/>
      <point x="1196" y="1210" type="curve"/>
      <point x="1210" y="1298" type="line"/>
      <point x="1136" y="1348"/>
      <point x="936" y="1448"/>
      <point x="712" y="1448" type="curve" smooth="yes"/>
      <point x="364" y="1448"/>
      <point x="194" y="1252"/>
      <point x="194" y="936" type="curve" smooth="yes"/>
      <point x="194" y="782"/>
      <point x="196" y="630"/>
      <point x="196" y="476" type="curve"/>
      <point x="196" y="302"/>
      <point x="196" y="162"/>
      <point x="192" y="0" type="curve"/>
      <point x="266" y="0" type="line"/>
      <point x="260" y="162"/>
      <point x="260" y="302"/>
      <point x="260" y="476" type="curve"/>
      <point x="260" y="920" type="line" smooth="yes"/>
      <point x="260" y="1218"/>
      <point x="384" y="1382"/>
      <point x="710" y="1384" type="curve"/>
      <point x="886" y="1382"/>
      <point x="1052" y="1322"/>
      <point x="1164" y="1246" type="curve"/>
      <point x="1160" y="1276" type="line"/>
      <point x="924" y="1038" type="line"/>
      <point x="844" y="958"/>
      <point x="764" y="880"/>
      <point x="684" y="804" type="curve"/>
      <point x="684" y="738" type="line"/>
      <point x="1062" y="700"/>
      <point x="1248" y="584"/>
      <point x="1248" y="372" type="curve" smooth="yes"/>
      <point x="1248" y="134"/>
      <point x="1074" y="52"/>
      <point x="844" y="50" type="curve"/>
      <point x="742" y="52"/>
      <point x="628" y="74"/>
      <point x="536" y="108" type="curve"/>
      <point x="536" y="30" type="line"/>
      <point x="626" y="6"/>
      <point x="750" y="-16"/>
    </contour>
  </outline>
</glyph>
<glyph name="lira" format="2">
  <advance width="1158"/>
  <unicode hex="20A4"/>
  <outline>
    <contour>
      <point x="150" y="0" type="line"/>
      <point x="1088" y="0" type="line"/>
      <point x="1088" y="66" type="line"/>
      <point x="910" y="60"/>
      <point x="754" y="60"/>
      <point x="488" y="60" type="curve"/>
      <point x="192" y="60" type="line"/>
      <point x="202" y="22" type="line"/>
      <point x="360" y="184"/>
      <point x="372" y="318"/>
      <point x="372" y="438" type="curve" smooth="yes"/>
      <point x="372" y="916" type="line" smooth="yes"/>
      <point x="372" y="1200"/>
      <point x="488" y="1326"/>
      <point x="726" y="1328" type="curve"/>
      <point x="778" y="1328"/>
      <point x="888" y="1304"/>
      <point x="1016" y="1246" type="curve"/>
      <point x="1026" y="1316" type="line"/>
      <point x="948" y="1346"/>
      <point x="824" y="1392"/>
      <point x="724" y="1392" type="curve" smooth="yes"/>
      <point x="474" y="1392"/>
      <point x="308" y="1244"/>
      <point x="308" y="924" type="curve" smooth="yes"/>
      <point x="308" y="762"/>
      <point x="310" y="602"/>
      <point x="310" y="440" type="curve"/>
      <point x="310" y="340"/>
      <point x="300" y="200"/>
      <point x="150" y="54" type="curve"/>
    </contour>
    <contour>
      <point x="132" y="774" type="line"/>
      <point x="248" y="778"/>
      <point x="358" y="778"/>
      <point x="452" y="778" type="curve"/>
      <point x="512" y="778" type="line"/>
      <point x="606" y="778"/>
      <point x="716" y="778"/>
      <point x="832" y="774" type="curve"/>
      <point x="832" y="838" type="line"/>
      <point x="716" y="834"/>
      <point x="606" y="834"/>
      <point x="512" y="834" type="curve"/>
      <point x="452" y="834" type="line"/>
      <point x="358" y="834"/>
      <point x="248" y="834"/>
      <point x="132" y="838" type="curve"/>
    </contour>
    <contour>
      <point x="132" y="514" type="line"/>
      <point x="248" y="518"/>
      <point x="358" y="518"/>
      <point x="452" y="518" type="curve"/>
      <point x="512" y="518" type="line"/>
      <point x="606" y="518"/>
      <point x="716" y="518"/>
      <point x="832" y="514" type="curve"/>
      <point x="832" y="578" type="line"/>
      <point x="716" y="574"/>
      <point x="606" y="574"/>
      <point x="512" y="574" type="curve"/>
      <point x="452" y="574" type="line"/>
      <point x="358" y="574"/>
      <point x="248" y="574"/>
      <point x="132" y="578" type="curve"/>
    </contour>
  </outline>
</glyph>
<glyph name="won" format="2">
  <advance width="2106"/>
  <unicode hex="20A9"/>
  <outline>
    <contour>
      <point x="572" y="0" type="curve"/>
      <point x="680" y="0" type="line"/>
      <point x="734" y="208"/>
      <point x="808" y="466"/>
      <point x="870" y="680" type="curve"/>
      <point x="1046" y="1290" type="line"/>
      <point x="1058" y="1290" type="line"/>
      <point x="1236" y="676" type="line"/>
      <point x="1298" y="462"/>
      <point x="1370" y="214"/>
      <point x="1426" y="0" type="curve"/>
      <point x="1534" y="0" type="line"/>
      <point x="1568" y="132"/>
      <point x="1616" y="292"/>
      <point x="1658" y="430" type="curve"/>
      <point x="1790" y="866" type="line"/>
      <point x="1832" y="1004"/>
      <point x="1892" y="1202"/>
      <point x="1948" y="1368" type="curve"/>
      <point x="1872" y="1368" type="line"/>
      <point x="1812" y="1150"/>
      <point x="1736" y="898"/>
      <point x="1674" y="694" type="curve"/>
      <point x="1486" y="72" type="line"/>
      <point x="1476" y="72" type="line"/>
      <point x="1298" y="682" type="line"/>
      <point x="1234" y="902"/>
      <point x="1162" y="1148"/>
      <point x="1104" y="1368" type="curve"/>
      <point x="998" y="1368" type="line"/>
      <point x="942" y="1152"/>
      <point x="870" y="902"/>
      <point x="808" y="686" type="curve"/>
      <point x="632" y="72" type="line"/>
      <point x="620" y="72" type="line"/>
      <point x="436" y="680" type="line"/>
      <point x="370" y="898"/>
      <point x="294" y="1150"/>
      <point x="234" y="1368" type="curve"/>
      <point x="158" y="1368" type="line"/>
      <point x="214" y="1202"/>
      <point x="276" y="998"/>
      <point x="320" y="852" type="curve"/>
      <point x="448" y="430" type="line"/>
      <point x="488" y="298"/>
      <point x="536" y="138"/>
    </contour>
    <contour>
      <point x="60" y="676" type="line"/>
      <point x="176" y="680"/>
      <point x="286" y="680"/>
      <point x="380" y="680" type="curve"/>
      <point x="1726" y="680" type="line"/>
      <point x="1820" y="680"/>
      <point x="1930" y="680"/>
      <point x="2046" y="676" type="curve"/>
      <point x="2046" y="740" type="line"/>
      <point x="1930" y="736"/>
      <point x="1820" y="736"/>
      <point x="1726" y="736" type="curve"/>
      <point x="380" y="736" type="line"/>
      <point x="286" y="736"/>
      <point x="176" y="736"/>
      <point x="60" y="740" type="curve"/>
    </contour>
  </outline>
</glyph>
<glyph name="kip" format="2">
  <advance width="1302"/>
  <unicode hex="20AD"/>
  <outline>
    <contour>
      <point x="1130" y="0" type="curve"/>
      <point x="1236" y="0" type="line"/>
      <point x="1106" y="112"/>
      <point x="900" y="298"/>
      <point x="756" y="430" type="curve"/>
      <point x="442" y="718" type="line"/>
      <point x="442" y="692" type="line"/>
      <point x="730" y="952" type="line"/>
      <point x="872" y="1082"/>
      <point x="1030" y="1224"/>
      <point x="1198" y="1368" type="curve"/>
      <point x="1092" y="1368" type="line"/>
      <point x="926" y="1214"/>
      <point x="812" y="1110"/>
      <point x="682" y="992" type="curve"/>
      <point x="400" y="736" type="line"/>
      <point x="320" y="736" type="line"/>
      <point x="320" y="680" type="line"/>
      <point x="394" y="680" type="line"/>
      <point x="722" y="378" type="line"/>
      <point x="848" y="262"/>
      <point x="982" y="138"/>
    </contour>
    <contour>
      <point x="270" y="0" type="curve"/>
      <point x="342" y="0" type="line"/>
      <point x="336" y="156"/>
      <point x="336" y="290"/>
      <point x="336" y="456" type="curve"/>
      <point x="336" y="912" type="line"/>
      <point x="336" y="1080"/>
      <point x="336" y="1214"/>
      <point x="342" y="1368" type="curve"/>
      <point x="270" y="1368" type="line"/>
      <point x="274" y="1214"/>
      <point x="274" y="1080"/>
      <point x="274" y="912" type="curve"/>
      <point x="274" y="456" type="line"/>
      <point x="274" y="290"/>
      <point x="274" y="156"/>
    </contour>
    <contour>
      <point x="76" y="676" type="line"/>
      <point x="192" y="680"/>
      <point x="302" y="680"/>
      <point x="396" y="680" type="curve"/>
      <point x="796" y="680" type="line"/>
      <point x="890" y="680"/>
      <point x="1000" y="680"/>
      <point x="1116" y="676" type="curve"/>
      <point x="1116" y="740" type="line"/>
      <point x="1000" y="736"/>
      <point x="890" y="736"/>
      <point x="796" y="736" type="curve"/>
      <point x="396" y="736" type="line"/>
      <point x="302" y="736"/>
      <point x="192" y="736"/>
      <point x="76" y="740" type="curve"/>
    </contour>
  </outline>
</glyph>
<glyph name="guarani" format="2">
  <advance width="1412"/>
  <unicode hex="20B2"/>
  <outline>
    <contour>
      <point x="834" y="-18" type="curve" smooth="yes"/>
      <point x="974" y="-18"/>
      <point x="1140" y="14"/>
      <point x="1260" y="72" type="curve"/>
      <point x="1248" y="146" type="line"/>
      <point x="1124" y="82"/>
      <point x="974" y="46"/>
      <point x="834" y="46" type="curve"/>
      <point x="382" y="50"/>
      <point x="184" y="326"/>
      <point x="184" y="690" type="curve" smooth="yes"/>
      <point x="184" y="1076"/>
      <point x="424" y="1324"/>
      <point x="782" y="1328" type="curve"/>
      <point x="860" y="1328"/>
      <point x="1026" y="1296"/>
      <point x="1222" y="1208" type="curve"/>
      <point x="1232" y="1282" type="line"/>
      <point x="1118" y="1328"/>
      <point x="930" y="1392"/>
      <point x="782" y="1392" type="curve" smooth="yes"/>
      <point x="390" y="1392"/>
      <point x="120" y="1098"/>
      <point x="120" y="690" type="curve" smooth="yes"/>
      <point x="120" y="294"/>
      <point x="362" y="-18"/>
    </contour>
    <contour>
      <point x="714" y="-274" type="curve"/>
      <point x="782" y="-274" type="line"/>
      <point x="778" y="-38"/>
      <point x="778" y="168"/>
      <point x="778" y="384" type="curve"/>
      <point x="778" y="948" type="line"/>
      <point x="778" y="1164"/>
      <point x="778" y="1370"/>
      <point x="782" y="1606" type="curve"/>
      <point x="714" y="1606" type="line"/>
      <point x="718" y="1370"/>
      <point x="718" y="1164"/>
      <point x="718" y="948" type="curve"/>
      <point x="718" y="384" type="line"/>
      <point x="718" y="168"/>
      <point x="718" y="-38"/>
    </contour>
    <contour>
      <point x="1190" y="70" type="curve"/>
      <point x="1260" y="72" type="line"/>
      <point x="1256" y="202"/>
      <point x="1256" y="288"/>
      <point x="1256" y="384" type="curve"/>
      <point x="1256" y="500"/>
      <point x="1256" y="580"/>
      <point x="1262" y="670" type="curve"/>
      <point x="1190" y="670" type="line"/>
      <point x="1194" y="580"/>
      <point x="1194" y="500"/>
      <point x="1194" y="384" type="curve"/>
      <point x="1194" y="288"/>
      <point x="1194" y="202"/>
    </contour>
  </outline>
</glyph>
<glyph name="manat" format="2">
  <advance width="1546"/>
  <unicode hex="20BC"/>
  <outline>
    <contour>
      <point x="196" y="0" type="curve"/>
      <point x="268" y="0" type="line"/>
      <point x="262" y="156"/>
      <point x="262" y="290"/>
      <point x="262" y="456" type="curve"/>
      <point x="262" y="804"/>
      <point x="400" y="1070"/>
      <point x="774" y="1076" type="curve"/>
      <point x="1140" y="1070"/>
      <point x="1284" y="826"/>
      <point x="1284" y="456" type="curve"/>
      <point x="1284" y="290"/>
      <point x="1284" y="156"/>
      <point x="1280" y="0" type="curve"/>
      <point x="1352" y="0" type="line"/>
      <point x="1346" y="156"/>
      <point x="1346" y="290"/>
      <point x="1346" y="456" type="curve"/>
      <point x="1346" y="860"/>
      <point x="1166" y="1140"/>
      <point x="774" y="1140" type="curve" smooth="yes"/>
      <point x="388" y="1140"/>
      <point x="200" y="864"/>
      <point x="200" y="456" type="curve"/>
      <point x="200" y="290"/>
      <point x="200" y="156"/>
    </contour>
    <contour>
      <point x="740" y="0" type="curve"/>
      <point x="808" y="0" type="line"/>
      <point x="804" y="236"/>
      <point x="804" y="442"/>
      <point x="804" y="658" type="curve"/>
      <point x="804" y="792" type="line"/>
      <point x="804" y="1008"/>
      <point x="804" y="1214"/>
      <point x="808" y="1450" type="curve"/>
      <point x="740" y="1450" type="line"/>
      <point x="744" y="1214"/>
      <point x="744" y="1008"/>
      <point x="744" y="792" type="curve"/>
      <point x="744" y="658" type="line"/>
      <point x="744" y="442"/>
      <point x="744" y="236"/>
    </contour>
  </outline>
</glyph>
<glyph name="ruble" format="2">
  <advance width="1210"/>
  <unicode hex="20BD"/>
  <outline>
    <contour>
      <point x="306" y="636" type="line"/>
      <point x="382" y="636"/>
      <point x="512" y="634"/>
      <point x="608" y="634" type="curve"/>
      <point x="998" y="634"/>
      <point x="1110" y="814"/>
      <point x="1110" y="1028" type="curve" smooth="yes"/>
      <point x="1110" y="1242"/>
      <point x="976" y="1370"/>
      <point x="684" y="1370" type="curve"/>
      <point x="500" y="1370"/>
      <point x="352" y="1368"/>
      <point x="250" y="1368" type="curve"/>
      <point x="294" y="1308" type="line"/>
      <point x="680" y="1308" type="line" smooth="yes"/>
      <point x="818" y="1308"/>
      <point x="1046" y="1300"/>
      <point x="1046" y="1028" type="curve" smooth="yes"/>
      <point x="1046" y="772"/>
      <point x="880" y="696"/>
      <point x="606" y="696" type="curve" smooth="yes"/>
      <point x="306" y="696" type="line"/>
    </contour>
    <contour>
      <point x="250" y="0" type="curve"/>
      <point x="322" y="0" type="line"/>
      <point x="316" y="156"/>
      <point x="316" y="290"/>
      <point x="316" y="456" type="curve"/>
      <point x="316" y="906" type="line"/>
      <point x="316" y="1074"/>
      <point x="316" y="1208"/>
      <point x="320" y="1364" type="curve"/>
      <point x="250" y="1368" type="line"/>
      <point x="254" y="1214"/>
      <point x="254" y="1080"/>
      <point x="254" y="912" type="curve"/>
      <point x="254" y="456" type="line"/>
      <point x="254" y="290"/>
      <point x="254" y="156"/>
    </contour>
    <contour>
      <point x="76" y="312" type="line"/>
      <point x="192" y="316"/>
      <point x="302" y="316"/>
      <point x="396" y="316" type="curve"/>
      <point x="456" y="316" type="line"/>
      <point x="550" y="316"/>
      <point x="660" y="316"/>
      <point x="776" y="312" type="curve"/>
      <point x="776" y="376" type="line"/>
      <point x="660" y="372"/>
      <point x="550" y="372"/>
      <point x="456" y="372" type="curve"/>
      <point x="396" y="372" type="line"/>
      <point x="302" y="372"/>
      <point x="192" y="372"/>
      <point x="76" y="376" type="curve"/>
    </contour>
  </outline>
</glyph>
<glyph name="partialdiff" format="2">
  <advance width="1176"/>
  <unicode hex="2202"/>
  <outline>
    <contour>
      <point x="592" y="-18" type="curve" smooth="yes"/>
      <point x="888" y="-18"/>
      <point x="1052" y="218"/>
      <point x="1052" y="644" type="curve" smooth="yes"/>
      <point x="1052" y="1108"/>
      <point x="886" y="1392"/>
      <point x="564" y="1392" type="curve" smooth="yes"/>
      <point x="454" y="1392"/>
      <point x="290" y="1324"/>
      <point x="202" y="1286" type="curve"/>
      <point x="216" y="1214" type="line"/>
      <point x="368" y="1294"/>
      <point x="508" y="1328"/>
      <point x="564" y="1328" type="curve"/>
      <point x="848" y="1324"/>
      <point x="990" y="1082"/>
      <point x="990" y="642" type="curve" smooth="yes"/>
      <point x="990" y="256"/>
      <point x="862" y="52"/>
      <point x="592" y="46" type="curve"/>
      <point x="318" y="52"/>
      <point x="186" y="264"/>
      <point x="186" y="478" type="curve" smooth="yes"/>
      <point x="186" y="690"/>
      <point x="314" y="884"/>
      <point x="584" y="890" type="curve"/>
      <point x="688" y="890"/>
      <point x="854" y="858"/>
      <point x="1012" y="680" type="curve"/>
      <point x="1012" y="718"/>
      <point x="1012" y="764"/>
      <point x="1012" y="808" type="curve"/>
      <point x="968" y="806" type="line"/>
      <point x="846" y="908"/>
      <point x="706" y="954"/>
      <point x="584" y="954" type="curve" smooth="yes"/>
      <point x="306" y="954"/>
      <point x="124" y="740"/>
      <point x="124" y="478" type="curve" smooth="yes"/>
      <point x="124" y="222"/>
      <point x="300" y="-18"/>
    </contour>
  </outline>
</glyph>
<glyph name="emptyset" format="2">
  <advance width="1292"/>
  <unicode hex="2205"/>
  <outline>
    <contour>
      <point x="236" y="4" type="line"/>
      <point x="330" y="136"/>
      <point x="416" y="248"/>
      <point x="522" y="386" type="curve"/>
      <point x="808" y="760" type="line"/>
      <point x="914" y="898"/>
      <point x="1008" y="1018"/>
      <point x="1108" y="1142" type="curve"/>
      <point x="1052" y="1182" type="line"/>
      <point x="960" y="1056"/>
      <point x="874" y="942"/>
      <point x="764" y="798" type="curve"/>
      <point x="476" y="422" type="line"/>
      <point x="372" y="286"/>
      <point x="286" y="176"/>
      <point x="182" y="46" type="curve"/>
    </contour>
    <contour>
      <point x="644" y="72" type="curve" smooth="yes"/>
      <point x="942" y="72"/>
      <point x="1162" y="274"/>
      <point x="1162" y="592" type="curve" smooth="yes"/>
      <point x="1162" y="902"/>
      <point x="944" y="1116"/>
      <point x="648" y="1116" type="curve" smooth="yes"/>
      <point x="348" y="1116"/>
      <point x="130" y="898"/>
      <point x="130" y="592" type="curve" smooth="yes"/>
      <point x="130" y="274"/>
      <point x="348" y="72"/>
    </contour>
    <contour>
      <point x="644" y="134" type="curve"/>
      <point x="392" y="138"/>
      <point x="192" y="280"/>
      <point x="192" y="592" type="curve" smooth="yes"/>
      <point x="192" y="886"/>
      <point x="396" y="1048"/>
      <point x="648" y="1052" type="curve"/>
      <point x="900" y="1048"/>
      <point x="1100" y="886"/>
      <point x="1100" y="592" type="curve" smooth="yes"/>
      <point x="1100" y="280"/>
      <point x="900" y="138"/>
    </contour>
  </outline>
</glyph>
<glyph name="product" format="2">
  <advance width="1556"/>
  <unicode hex="220F"/>
  <outline>
    <contour>
      <point x="1168" y="-384" type="curve"/>
      <point x="1242" y="-384" type="line"/>
      <point x="1236" y="-182"/>
      <point x="1236" y="-6"/>
      <point x="1236" y="212" type="curve"/>
      <point x="1236" y="824" type="line"/>
      <point x="1236" y="1042"/>
      <point x="1238" y="1216"/>
      <point x="1242" y="1418" type="curve"/>
      <point x="1242" y="1426" type="line"/>
      <point x="1166" y="1426" type="line"/>
      <point x="1166" y="1418" type="line"/>
      <point x="1170" y="1216"/>
      <point x="1172" y="1042"/>
      <point x="1172" y="824" type="curve"/>
      <point x="1172" y="212" type="line"/>
      <point x="1172" y="-6"/>
      <point x="1172" y="-182"/>
    </contour>
    <contour>
      <point x="318" y="-384" type="curve"/>
      <point x="392" y="-384" type="line"/>
      <point x="386" y="-182"/>
      <point x="386" y="-6"/>
      <point x="386" y="212" type="curve"/>
      <point x="386" y="824" type="line"/>
      <point x="386" y="1042"/>
      <point x="388" y="1216"/>
      <point x="392" y="1418" type="curve"/>
      <point x="392" y="1426" type="line"/>
      <point x="316" y="1426" type="line"/>
      <point x="316" y="1418" type="line"/>
      <point x="320" y="1216"/>
      <point x="322" y="1042"/>
      <point x="322" y="824" type="curve"/>
      <point x="322" y="212" type="line"/>
      <point x="322" y="-6"/>
      <point x="322" y="-182"/>
    </contour>
    <contour>
      <point x="70" y="1356" type="line"/>
      <point x="188" y="1360"/>
      <point x="312" y="1364"/>
      <point x="482" y="1364" type="curve"/>
      <point x="1074" y="1364" type="line"/>
      <point x="1244" y="1364"/>
      <point x="1370" y="1362"/>
      <point x="1486" y="1356" type="curve"/>
      <point x="1486" y="1426" type="line"/>
      <point x="70" y="1426" type="line"/>
    </contour>
  </outline>
</glyph>
<glyph name="summation" format="2">
  <advance width="1228"/>
  <unicode hex="2211"/>
  <outline>
    <contour>
      <point x="108" y="-384" type="line"/>
      <point x="1158" y="-384" type="line"/>
      <point x="1158" y="-312" type="line"/>
      <point x="980" y="-322"/>
      <point x="694" y="-322"/>
      <point x="498" y="-322" type="curve"/>
      <point x="130" y="-322" type="line"/>
      <point x="158" y="-372" type="line"/>
      <point x="404" y="-36" type="line"/>
      <point x="546" y="158"/>
      <point x="696" y="364"/>
      <point x="846" y="558" type="curve"/>
      <point x="700" y="730"/>
      <point x="550" y="918"/>
      <point x="410" y="1094" type="curve"/>
      <point x="166" y="1400" type="line"/>
      <point x="120" y="1364" type="line"/>
      <point x="526" y="1364" type="line"/>
      <point x="710" y="1364"/>
      <point x="918" y="1364"/>
      <point x="1140" y="1356" type="curve"/>
      <point x="1140" y="1426" type="line"/>
      <point x="110" y="1426" type="line"/>
      <point x="110" y="1364" type="line"/>
      <point x="246" y="1198"/>
      <point x="378" y="1032"/>
      <point x="510" y="866" type="curve"/>
      <point x="772" y="538" type="line"/>
      <point x="772" y="576" type="line"/>
      <point x="544" y="264" type="line"/>
      <point x="412" y="84"/>
      <point x="228" y="-168"/>
      <point x="108" y="-328" type="curve"/>
    </contour>
  </outline>
</glyph>
<glyph name="lozenge" format="2">
  <advance width="1180"/>
  <unicode hex="25CA"/>
  <outline>
    <contour>
      <point x="538" y="20" type="curve"/>
      <point x="642" y="20" type="line"/>
      <point x="770" y="212"/>
      <point x="906" y="402"/>
      <point x="1044" y="594" type="curve"/>
      <point x="906" y="786"/>
      <point x="770" y="976"/>
      <point x="642" y="1168" type="curve"/>
      <point x="538" y="1168" type="line"/>
      <point x="410" y="976"/>
      <point x="274" y="786"/>
      <point x="136" y="594" type="curve"/>
      <point x="274" y="402"/>
      <point x="410" y="212"/>
    </contour>
    <contour>
      <point x="584" y="76" type="line"/>
      <point x="460" y="248"/>
      <point x="338" y="422"/>
      <point x="210" y="594" type="curve"/>
      <point x="338" y="766"/>
      <point x="460" y="940"/>
      <point x="584" y="1112" type="curve"/>
      <point x="596" y="1112" type="line"/>
      <point x="720" y="940"/>
      <point x="842" y="766"/>
      <point x="970" y="594" type="curve"/>
      <point x="842" y="422"/>
      <point x="720" y="248"/>
      <point x="596" y="76" type="curve"/>
    </contour>
  </outline>
</glyph>
<glyph name="H.bar" format="2">
  <advance width="1500"/>
  <anchor x="750" y="0" name="bottom"/>
  <anchor x="750" y="714" name="center"/>
  <anchor x="750" y="1426" name="top"/>
  <anchor x="72" y="1426" name="topleft"/>
  <outline>
    <contour>
      <point x="1210" y="0" type="curve"/>
      <point x="1284" y="0" type="line"/>
      <point x="1278" y="162"/>
      <point x="1278" y="302"/>
      <point x="1278" y="476" type="curve"/>
      <point x="1278" y="950" type="line"/>
      <point x="1278" y="1124"/>
      <point x="1278" y="1264"/>
      <point x="1284" y="1426" type="curve"/>
      <point x="1210" y="1426" type="line"/>
      <point x="1214" y="1264"/>
      <point x="1214" y="1124"/>
      <point x="1214" y="950" type="curve"/>
      <point x="1214" y="476" type="line"/>
      <point x="1214" y="302"/>
      <point x="1214" y="162"/>
    </contour>
    <contour>
      <point x="216" y="0" type="curve"/>
      <point x="290" y="0" type="line"/>
      <point x="284" y="162"/>
      <point x="284" y="302"/>
      <point x="284" y="476" type="curve"/>
      <point x="284" y="950" type="line"/>
      <point x="284" y="1124"/>
      <point x="284" y="1264"/>
      <point x="290" y="1426" type="curve"/>
      <point x="216" y="1426" type="line"/>
      <point x="220" y="1264"/>
      <point x="220" y="1124"/>
      <point x="220" y="950" type="curve"/>
      <point x="220" y="476" type="line"/>
      <point x="220" y="302"/>
      <point x="220" y="162"/>
    </contour>
    <contour>
      <point x="242" y="694" type="line"/>
      <point x="1262" y="694" type="line"/>
      <point x="1262" y="756" type="line"/>
      <point x="242" y="756" type="line"/>
    </contour>
  </outline>
</glyph>
<glyph name=".notdef" format="2">
  <advance width="1270"/>
  <outline>
    <contour>
      <point x="100" y="-384" type="line"/>
      <point x="1170" y="-384" type="line"/>
      <point x="1170" y="1636" type="line"/>
      <point x="100" y="1636" type="line"/>
    </contour>
    <contour>
      <point x="160" y="-324" type="line"/>
      <point x="160" y="1576" type="line"/>
      <point x="1110" y="1576" type="line"/>
      <point x="1110" y="-324" type="line"/>
    </contour>
    <contour>
      <point x="658" y="382" type="curve" smooth="yes"/>
      <point x="694" y="382"/>
      <point x="740" y="388"/>
      <point x="770" y="396" type="curve"/>
      <point x="766" y="448" type="line"/>
      <point x="738" y="440"/>
      <point x="690" y="428"/>
      <point x="658" y="428" type="curve"/>
      <point x="580" y="430"/>
      <point x="516" y="458"/>
      <point x="516" y="548" type="curve" smooth="yes"/>
      <point x="516" y="628"/>
      <point x="588" y="686"/>
      <point x="674" y="748" type="curve" smooth="yes"/>
      <point x="776" y="822"/>
      <point x="890" y="908"/>
      <point x="890" y="1056" type="curve" smooth="yes"/>
      <point x="890" y="1200"/>
      <point x="778" y="1280"/>
      <point x="624" y="1280" type="curve" smooth="yes"/>
      <point x="550" y="1280"/>
      <point x="444" y="1246"/>
      <point x="380" y="1222" type="curve"/>
      <point x="386" y="1164" type="line"/>
      <point x="486" y="1208"/>
      <point x="580" y="1228"/>
      <point x="626" y="1228" type="curve"/>
      <point x="758" y="1228"/>
      <point x="838" y="1168"/>
      <point x="838" y="1056" type="curve" smooth="yes"/>
      <point x="838" y="932"/>
      <point x="736" y="856"/>
      <point x="642" y="784" type="curve" smooth="yes"/>
      <point x="552" y="716"/>
      <point x="464" y="652"/>
      <point x="464" y="548" type="curve" smooth="yes"/>
      <point x="464" y="446"/>
      <point x="544" y="382"/>
    </contour>
    <contour>
      <point x="616" y="18" type="curve" smooth="yes"/>
      <point x="662" y="18"/>
      <point x="692" y="40"/>
      <point x="692" y="96" type="curve" smooth="yes"/>
      <point x="692" y="146"/>
      <point x="662" y="168"/>
      <point x="616" y="168" type="curve" smooth="yes"/>
      <point x="572" y="168"/>
      <point x="542" y="146"/>
      <point x="542" y="96" type="curve" smooth="yes"/>
      <point x="542" y="40"/>
      <point x="572" y="18"/>
    </contour>
  </outline>
</glyph>
<glyph name="acutecomb.case" format="2">
  <anchor x="600" y="988" name="_top"/>
  <anchor x="598" y="1352" name="top"/>
  <outline>
    <contour>
      <point x="488" y="1152" type="curve"/>
      <point x="554" y="1154" type="line"/>
      <point x="660" y="1270"/>
      <point x="764" y="1384"/>
      <point x="864" y="1502" type="curve"/>
      <point x="772" y="1502" type="line"/>
      <point x="682" y="1384"/>
      <point x="586" y="1268"/>
    </contour>
  </outline>
</glyph>
<glyph name="brevecomb_hookabovecomb" format="2">
  <anchor x="597" y="988" name="_top"/>
  <outline>
    <contour>
      <point x="596" y="1170" type="curve" smooth="yes"/>
      <point x="780" y="1170"/>
      <point x="882" y="1296"/>
      <point x="882" y="1516" type="curve"/>
      <point x="824" y="1516" type="line"/>
      <point x="824" y="1312"/>
      <point x="742" y="1236"/>
      <point x="596" y="1232" type="curve"/>
      <point x="452" y="1236"/>
      <point x="370" y="1312"/>
      <point x="370" y="1518" type="curve"/>
      <point x="312" y="1516" type="line"/>
      <point x="312" y="1296"/>
      <point x="416" y="1170"/>
    </contour>
    <contour>
      <point x="556" y="1528" type="line"/>
      <point x="616" y="1528" type="line"/>
      <point x="616" y="1598" type="line"/>
      <point x="688" y="1628"/>
      <point x="792" y="1682"/>
      <point x="792" y="1794" type="curve" smooth="yes"/>
      <point x="792" y="1898"/>
      <point x="698" y="1948"/>
      <point x="604" y="1948" type="curve" smooth="yes"/>
      <point x="546" y="1948"/>
      <point x="470" y="1918"/>
      <point x="420" y="1902" type="curve"/>
      <point x="426" y="1834" type="line"/>
      <point x="494" y="1866"/>
      <point x="568" y="1886"/>
      <point x="602" y="1886" type="curve"/>
      <point x="670" y="1884"/>
      <point x="730" y="1862"/>
      <point x="730" y="1794" type="curve" smooth="yes"/>
      <point x="730" y="1720"/>
      <point x="656" y="1668"/>
      <point x="556" y="1634" type="curve"/>
    </contour>
  </outline>
</glyph>
<glyph name="brevecomb_tildecomb.case" format="2">
  <anchor x="598" y="988" name="_top"/>
  <outline>
    <contour>
      <point x="596" y="1150" type="curve" smooth="yes"/>
      <point x="780" y="1150"/>
      <point x="882" y="1276"/>
      <point x="882" y="1436" type="curve"/>
      <point x="824" y="1436" type="line"/>
      <point x="824" y="1292"/>
      <point x="742" y="1216"/>
      <point x="596" y="1212" type="curve"/>
      <point x="452" y="1216"/>
      <point x="370" y="1292"/>
      <point x="370" y="1438" type="curve"/>
      <point x="312" y="1436" type="line"/>
      <point x="312" y="1276"/>
      <point x="416" y="1150"/>
    </contour>
    <contour>
      <point x="760" y="1534" type="curve" smooth="yes"/>
      <point x="864" y="1534"/>
      <point x="926" y="1612"/>
      <point x="926" y="1756" type="curve"/>
      <point x="870" y="1756" type="line"/>
      <point x="862" y="1644"/>
      <point x="836" y="1600"/>
      <point x="762" y="1596" type="curve"/>
      <point x="642" y="1600"/>
      <point x="580" y="1782"/>
      <point x="436" y="1782" type="curve" smooth="yes"/>
      <point x="332" y="1782"/>
      <point x="270" y="1704"/>
      <point x="270" y="1560" type="curve"/>
      <point x="326" y="1560" type="line"/>
      <point x="332" y="1672"/>
      <point x="362" y="1716"/>
      <point x="434" y="1720" type="curve"/>
      <point x="554" y="1716"/>
      <point x="616" y="1534"/>
    </contour>
  </outline>
</glyph>
<glyph name="circumflexcomb_gravecomb.case" format="2">
  <anchor x="600" y="988" name="_top"/>
  <outline>
    <contour>
      <point x="934" y="1422" type="curve"/>
      <point x="1000" y="1424" type="line"/>
      <point x="902" y="1540"/>
      <point x="806" y="1656"/>
      <point x="716" y="1772" type="curve"/>
      <point x="624" y="1772" type="line"/>
      <point x="724" y="1652"/>
      <point x="828" y="1538"/>
    </contour>
    <contour>
      <point x="266" y="1154" type="curve"/>
      <point x="332" y="1154" type="line"/>
      <point x="438" y="1270"/>
      <point x="538" y="1384"/>
      <point x="638" y="1500" type="curve"/>
      <point x="550" y="1500" type="line"/>
      <point x="458" y="1384"/>
      <point x="364" y="1270"/>
    </contour>
    <contour>
      <point x="862" y="1150" type="curve"/>
      <point x="928" y="1152" type="line"/>
      <point x="830" y="1268"/>
      <point x="736" y="1384"/>
      <point x="644" y="1500" type="curve"/>
      <point x="556" y="1500" type="line"/>
      <point x="654" y="1384"/>
      <point x="758" y="1266"/>
    </contour>
  </outline>
</glyph>
<glyph name="circumflexcomb_tildecomb" format="2">
  <anchor x="597" y="988" name="_top"/>
  <outline>
    <contour>
      <point x="760" y="1614" type="curve" smooth="yes"/>
      <point x="864" y="1614"/>
      <point x="926" y="1692"/>
      <point x="926" y="1836" type="curve"/>
      <point x="870" y="1836" type="line"/>
      <point x="862" y="1724"/>
      <point x="836" y="1680"/>
      <point x="762" y="1676" type="curve"/>
      <point x="642" y="1680"/>
      <point x="580" y="1862"/>
      <point x="436" y="1862" type="curve" smooth="yes"/>
      <point x="332" y="1862"/>
      <point x="270" y="1784"/>
      <point x="270" y="1640" type="curve"/>
      <point x="326" y="1640" type="line"/>
      <point x="332" y="1752"/>
      <point x="362" y="1796"/>
      <point x="434" y="1800" type="curve"/>
      <point x="554" y="1796"/>
      <point x="616" y="1614"/>
    </contour>
    <contour>
      <point x="266" y="1174" type="curve"/>
      <point x="332" y="1174" type="line"/>
      <point x="438" y="1302"/>
      <point x="538" y="1428"/>
      <point x="638" y="1554" type="curve"/>
      <point x="550" y="1554" type="line"/>
      <point x="458" y="1428"/>
      <point x="364" y="1302"/>
    </contour>
    <contour>
      <point x="862" y="1170" type="curve"/>
      <point x="928" y="1172" type="line"/>
      <point x="830" y="1300"/>
      <point x="736" y="1428"/>
      <point x="644" y="1554" type="curve"/>
      <point x="556" y="1554" type="line"/>
      <point x="654" y="1428"/>
      <point x="758" y="1298"/>
    </contour>
  </outline>
</glyph>
<glyph name="macroncomb.narrow" format="2">
  <anchor x="600" y="988" name="_top"/>
  <anchor x="600" y="1336" name="top"/>
  <outline>
    <contour>
      <point x="358" y="1298" type="line"/>
      <point x="430" y="1300"/>
      <point x="512" y="1300"/>
      <point x="600" y="1300" type="curve"/>
      <point x="688" y="1300"/>
      <point x="770" y="1300"/>
      <point x="842" y="1298" type="curve"/>
      <point x="842" y="1358" type="line"/>
      <point x="770" y="1356"/>
      <point x="688" y="1356"/>
      <point x="600" y="1356" type="curve"/>
      <point x="512" y="1356"/>
      <point x="430" y="1356"/>
      <point x="358" y="1358" type="curve"/>
    </contour>
  </outline>
</glyph>
<glyph name="seven.dnom" format="2">
  <advance width="748"/>
  <outline>
    <contour>
      <point x="178" y="0" type="curve"/>
      <point x="256" y="0" type="line"/>
      <point x="306" y="112"/>
      <point x="362" y="228"/>
      <point x="416" y="340" type="curve"/>
      <point x="510" y="536" type="line"/>
      <point x="564" y="646"/>
      <point x="620" y="762"/>
      <point x="674" y="868" type="curve"/>
      <point x="674" y="918" type="line"/>
      <point x="40" y="918" type="line"/>
      <point x="40" y="856" type="line"/>
      <point x="162" y="860"/>
      <point x="286" y="860"/>
      <point x="406" y="860" type="curve"/>
      <point x="620" y="860" type="line"/>
      <point x="606" y="876" type="line"/>
      <point x="576" y="806"/>
      <point x="542" y="734"/>
      <point x="508" y="664" type="curve"/>
      <point x="368" y="374" type="line"/>
      <point x="308" y="252"/>
      <point x="248" y="130"/>
    </contour>
  </outline>
</glyph>
<glyph name="tildecomb.case" format="2">
  <anchor x="600" y="988" name="_top"/>
  <anchor x="600" y="1330" name="top"/>
  <outline>
    <contour>
      <point x="762" y="1156" type="curve" smooth="yes"/>
      <point x="866" y="1156"/>
      <point x="928" y="1234"/>
      <point x="928" y="1378" type="curve"/>
      <point x="872" y="1378" type="line"/>
      <point x="864" y="1266"/>
      <point x="838" y="1222"/>
      <point x="764" y="1218" type="curve"/>
      <point x="644" y="1222"/>
      <point x="582" y="1404"/>
      <point x="438" y="1404" type="curve" smooth="yes"/>
      <point x="334" y="1404"/>
      <point x="272" y="1326"/>
      <point x="272" y="1182" type="curve"/>
      <point x="328" y="1182" type="line"/>
      <point x="334" y="1294"/>
      <point x="364" y="1338"/>
      <point x="436" y="1342" type="curve"/>
      <point x="556" y="1338"/>
      <point x="618" y="1156"/>
    </contour>
  </outline>
</glyph>
<glyph name="two.dnom" format="2">
  <advance width="778"/>
  <outline>
    <contour>
      <point x="74" y="0" type="line"/>
      <point x="684" y="0" type="line"/>
      <point x="684" y="62" type="line"/>
      <point x="558" y="58"/>
      <point x="428" y="58"/>
      <point x="300" y="58" type="curve"/>
      <point x="138" y="58" type="line"/>
      <point x="154" y="42" type="line"/>
      <point x="320" y="182" type="line"/>
      <point x="544" y="370"/>
      <point x="662" y="524"/>
      <point x="662" y="678" type="curve" smooth="yes"/>
      <point x="662" y="834"/>
      <point x="558" y="934"/>
      <point x="376" y="934" type="curve" smooth="yes"/>
      <point x="284" y="934"/>
      <point x="144" y="882"/>
      <point x="70" y="854" type="curve"/>
      <point x="82" y="784" type="line"/>
      <point x="210" y="848"/>
      <point x="324" y="874"/>
      <point x="372" y="874" type="curve"/>
      <point x="530" y="872"/>
      <point x="600" y="806"/>
      <point x="600" y="674" type="curve" smooth="yes"/>
      <point x="600" y="524"/>
      <point x="470" y="384"/>
      <point x="256" y="202" type="curve"/>
      <point x="194" y="150"/>
      <point x="134" y="100"/>
      <point x="74" y="52" type="curve"/>
    </contour>
  </outline>
</glyph>
